<?xml version="1.0" standalone="no"?>
<!DOCTYPE svg PUBLIC "-//W3C//DTD SVG 1.1//EN" "http://www.w3.org/Graphics/SVG/1.1/DTD/svg11.dtd" >
<svg xmlns="http://www.w3.org/2000/svg">
<metadata>
<json>
<![CDATA[
{
	"fontFamily": "icomoon",
	"majorVersion": 1,
	"minorVersion": 0,
	"version": "Version 1.0",
	"fontId": "icomoon",
	"psName": "icomoon",
	"subFamily": "Regular",
	"fullName": "icomoon",
	"description": "Font generated by IcoMoon."
}
]]>
</json>
</metadata>
<defs>
<font id="icomoon" horiz-adv-x="1024">
<font-face units-per-em="1024" ascent="960" descent="-64" />
<missing-glyph horiz-adv-x="1024" />
<glyph unicode="&#x20;" horiz-adv-x="512" d="" />
<glyph unicode="&#xe900;" glyph-name="modern-1" data-tags="modern-1" d="M1005.134 520.413h-40.892v168.679h8.519c8.519 0 15.334 6.816 15.334 15.334s-6.816 15.334-15.334 15.334h-35.78c-6.816 105.637-92.007 192.532-199.348 199.348v25.557c0 8.519-6.816 15.334-15.334 15.334s-15.334-6.816-15.334-15.334v-25.557c-107.341-6.816-192.532-92.007-199.348-199.348h-35.78c-8.519 0-15.334-6.816-15.334-15.334s6.816-15.334 15.334-15.334h8.519v-168.679h-120.971c6.816 8.519 11.927 20.446 15.334 32.373h13.63c8.519 0 15.334 6.816 15.334 15.334s-6.816 15.334-15.334 15.334h-28.965c6.816 8.519 11.927 20.446 15.334 32.373h13.63c8.519 0 15.334 6.816 15.334 15.334s-6.816 15.334-15.334 15.334h-28.965c6.816 8.519 11.927 20.446 15.334 32.373h13.63c8.519 0 15.334 6.816 15.334 15.334s-6.816 15.334-15.334 15.334h-28.965c6.816 8.519 11.927 20.446 15.334 32.373h13.63c8.519 0 15.334 6.816 15.334 15.334s-6.816 15.334-15.334 15.334h-337.358c-8.519 0-15.334-6.816-15.334-15.334 0-11.927 6.816-18.742 15.334-18.742h15.334c1.704-11.927 8.519-22.15 15.334-32.373h-30.669c-8.519 0-15.334-6.816-15.334-15.334s6.816-15.334 15.334-15.334h15.334c3.407-11.927 8.519-22.15 15.334-30.669h-30.669c-8.519 0-15.334-6.816-15.334-15.334s6.816-15.334 15.334-15.334h15.334c3.407-11.927 8.519-22.15 15.334-32.373h-30.669c-8.519 0-15.334-6.816-15.334-15.334s6.816-15.334 15.334-15.334h15.334c1.704-11.927 8.519-22.15 15.334-32.373h-61.338c-8.519 0-15.334-6.816-15.334-15.334v-138.010c0-8.519 6.816-15.334 15.334-15.334v-354.396c0 0 0-1.704 0-1.704s0-1.704 0-1.704c0-8.519 8.519-15.334 17.039-13.63 15.334 1.704 27.262 3.407 39.188 6.816v-34.076c0-8.519 6.816-15.334 15.334-15.334s15.334 6.816 15.334 15.334v46.003c13.63 6.816 23.853 13.63 35.78 18.742 28.965 17.039 57.93 34.076 114.157 34.076s85.191-17.039 114.157-34.076c32.373-18.742 64.745-39.188 129.491-39.188s98.822 20.446 129.491 39.188c28.965 17.039 57.93 34.076 114.157 34.076s85.191-17.039 114.157-34.076c17.039-10.223 34.076-20.446 54.522-27.262v-37.485c0-8.519 6.816-15.334 15.334-15.334s15.334 6.816 15.334 15.334v28.965c13.63-1.704 27.262-3.407 44.299-3.407 8.519 0 15.334 6.816 15.334 15.334 0 0 0 1.704 0 1.704s0 1.704 0 1.704v356.099c8.519 0 15.334 6.816 15.334 15.334v138.010c1.704 8.519-5.111 15.334-13.63 15.334zM722.299 890.143c97.118 0 177.198-74.968 184.013-170.383h-368.027c8.519 95.414 88.599 170.383 184.013 170.383zM512.728 689.092h420.846v-168.679h-420.846v168.679zM98.698 738.502h245.351c-6.816-17.039-22.15-30.669-42.596-32.373h-161.863c-18.742 1.704-35.78 13.63-40.892 32.373zM98.698 675.461h245.351c-6.816-17.039-22.15-30.669-42.596-32.373h-161.863c-18.742 1.704-35.78 15.334-40.892 32.373zM98.698 614.124h245.351c-6.816-17.039-22.15-30.669-42.596-32.373h-161.863c-18.742 1.704-35.78 13.63-40.892 32.373zM98.698 551.082h245.351c-6.816-17.039-22.15-30.669-42.596-32.373h-161.863c-18.742 1.704-35.78 15.334-40.892 32.373zM35.656 489.744h954.143v-107.341h-954.143v107.341zM746.152 82.53c-64.745 0-98.822-20.446-129.491-39.188-28.965-17.039-57.93-34.076-114.157-34.076s-85.191 17.039-114.157 34.076c-32.373 18.742-64.745 39.188-129.491 39.188s-98.822-20.446-129.491-39.188c-22.15-13.63-42.596-25.557-74.968-30.669v339.062h925.178v-342.469c-46.003 3.407-73.265 18.742-98.822 34.076-37.485 20.446-69.857 39.188-134.603 39.188z" />
<glyph unicode="&#xe901;" glyph-name="modern-2" data-tags="modern-2" d="M559.787 886.613h-317.44c-17.067 0-30.72-13.653-30.72-30.72v-175.787c0-17.067 13.653-30.72 30.72-30.72h261.12c0 0 0 0 0 0s0 0 0 0h56.32c17.067 0 30.72 13.653 30.72 30.72v175.787c1.707 17.067-11.947 30.72-30.72 30.72zM482.987 673.28h-163.84c17.067 29.013 47.787 47.787 81.92 47.787s64.853-18.773 81.92-47.787zM566.613 680.107c0-3.413-3.413-6.827-6.827-6.827h-47.787c-10.24 22.187-25.6 40.96-44.373 52.907l37.547 73.387c3.413 6.827 0 13.653-5.12 17.067s-13.653 0-17.067-5.12l-39.253-73.387c-13.653 5.12-27.307 8.533-42.667 8.533-47.787 0-92.16-29.013-110.933-73.387h-49.493c-3.413 0-6.827 3.413-6.827 6.827v175.787c0 3.413 3.413 6.827 6.827 6.827h317.44c3.413 0 6.827-3.413 6.827-6.827v-175.787zM1005.227 864.427c-5.12 5.12-13.653 5.12-18.773 0l-112.64-112.64c-17.067-17.067-25.6-39.253-25.6-61.44v-385.707c0-32.427-25.6-58.027-58.027-58.027s-58.027 25.6-58.027 58.027v105.813c0 27.307-22.187 51.2-51.2 51.2h-22.187v423.253c0 40.96-34.133 75.093-75.093 75.093h-366.933c-40.96 0-75.093-34.133-75.093-75.093v-776.533h-100.693c-22.187 0-40.96-18.773-40.96-42.667v-81.92c0-22.187 18.773-40.96 40.96-40.96h720.213c22.187 0 40.96 18.773 40.96 40.96v81.92c0 22.187-18.773 40.96-40.96 40.96h-98.987v329.387h22.187c13.653 0 25.6-11.947 25.6-25.6v-105.813c0-46.080 37.547-81.92 81.92-81.92s81.92 37.547 81.92 81.92v343.040c1.707 0 1.707 0 3.413 0 42.667 0 76.8 34.133 76.8 76.8 0 18.773-6.827 37.547-20.48 51.2l71.68 71.68c5.12 5.12 5.12 11.947 0 17.067zM776.533 65.707v-81.92c0-8.533-6.827-15.36-15.36-15.36h-720.213c-8.533 0-15.36 6.827-15.36 15.36v81.92c0 8.533 6.827 15.36 15.36 15.36h720.213c8.533 1.707 15.36-5.12 15.36-15.36zM165.547 108.373v776.533c0 27.307 22.187 49.493 49.493 49.493h370.347c27.307 0 49.493-22.187 49.493-49.493v-776.533h-469.333zM930.133 724.48c0-29.013-22.187-51.2-51.2-51.2-1.707 0-1.707 0-3.413 0v17.067c0 17.067 6.827 32.427 18.773 44.373l23.893 23.893c6.827-10.24 11.947-22.187 11.947-34.133z" />
<glyph unicode="&#xe902;" glyph-name="modern-3" data-tags="modern-3" d="M998.4 704h-90.453c-3.413 18.773-20.48 34.133-40.96 34.133h-85.333v39.253c0 23.893-18.773 42.667-42.667 42.667h-133.12v30.72c0 6.827-5.12 11.947-11.947 11.947h-409.6c-95.573 0-172.373-76.8-172.373-172.373s76.8-172.373 172.373-172.373h27.307c17.067 0 34.133-8.533 44.373-22.187s13.653-32.427 8.533-49.493l-81.92-290.133h-23.893c-18.773 0-34.133-15.36-34.133-34.133v-143.36c0-18.773 15.36-34.133 34.133-34.133h271.36c18.773 0 34.133 15.36 34.133 34.133v143.36c0 18.773-15.36 34.133-34.133 34.133h-22.187c-5.12 0-8.533 1.707-11.947 6.827-3.413 1.707-3.413 6.827-3.413 11.947l68.267 242.347h64.853c5.12 0 8.533 1.707 10.24 5.12s3.413 8.533 1.707 11.947c0 0-20.48 49.493 6.827 83.627h47.787c6.827 0 11.947 5.12 11.947 11.947v32.427h133.12c23.893 0 42.667 18.773 42.667 42.667v39.253h85.333c20.48 0 37.547 13.653 40.96 34.133h90.453c6.827 0 11.947 5.12 11.947 11.947s-3.413 13.653-10.24 13.653zM421.547 130.56h8.533c5.12 0 8.533-3.413 8.533-8.533v-143.36c0-5.12-3.413-8.533-8.533-8.533h-271.36c-5.12 0-8.533 3.413-8.533 8.533v143.36c0 5.12 3.413 8.533 8.533 8.533h262.827zM368.64 181.76c-1.707-8.533-1.707-18.773 1.707-25.6h-160.427l80.213 283.307c6.827 25.6 1.707 51.2-13.653 71.68-1.707 1.707-3.413 5.12-6.827 6.827h192.853l-93.867-336.213zM510.293 442.88h-40.96l20.48 75.093h25.6c-13.653-27.307-10.24-56.32-5.12-75.093zM580.267 543.573h-395.947c-81.92 0-146.773 66.56-146.773 146.773 0 81.92 66.56 146.773 146.773 146.773h395.947v-293.547zM756.053 605.013c0-10.24-8.533-17.067-17.067-17.067h-133.12v206.507h133.12c10.24 0 17.067-8.533 17.067-17.067v-172.373zM884.053 686.933c0-8.533-6.827-17.067-17.067-17.067h-85.333v40.96h85.333c8.533 0 17.067-6.827 17.067-17.067v-6.827z" />
<glyph unicode="&#xe903;" glyph-name="modern-4" data-tags="modern-4" d="M1006.933 960h-87.040c-6.827 0-11.947-5.12-11.947-11.947v-320.853h-90.453v175.787c0 6.827-5.12 11.947-11.947 11.947h-303.787v69.973c0 6.827-5.12 11.947-11.947 11.947h-293.547c-6.827 0-11.947-5.12-11.947-11.947v-257.707h-73.387v319.147c0 6.827-5.12 13.653-11.947 13.653h-87.040c-6.827 0-11.947-6.827-11.947-13.653v-986.453c0-6.827 5.12-11.947 11.947-11.947h87.040c6.827 0 11.947 5.12 11.947 11.947v197.973h795.307v-197.973c0-6.827 5.12-11.947 11.947-11.947h88.747c6.827 0 11.947 5.12 11.947 11.947v988.16c0 6.827-5.12 11.947-11.947 11.947zM791.893 789.333v-162.133h-290.133v162.133h290.133zM208.213 871.253h121.173v-76.8c0-6.827 5.12-11.947 11.947-11.947s11.947 5.12 11.947 11.947v76.8h121.173v-245.76h-266.24v245.76zM87.040-28.16h-61.44v962.56h61.44v-962.56zM546.133 349.013v69.973h121.173v-76.8c0-6.827 5.12-11.947 11.947-11.947s11.947 5.12 11.947 11.947v76.8h121.173v-237.227h-266.24v167.253zM520.533 183.467h-290.133v153.6h290.133v-153.6zM839.68 183.467v249.173c0 6.827-5.12 11.947-11.947 11.947h-295.253c-6.827 0-11.947-5.12-11.947-11.947v-69.973h-302.080c-6.827 0-11.947-5.12-11.947-11.947v-167.253h-95.573v418.133h795.307v-418.133h-66.56zM993.28-26.453h-61.44v960.853h61.44v-960.853zM344.747 260.267c0 6.827 5.12 11.947 11.947 11.947h35.84c6.827 0 11.947-5.12 11.947-11.947s-5.12-11.947-11.947-11.947h-34.133c-6.827 0-13.653 5.12-13.653 11.947zM616.107 709.12c0 6.827 5.12 11.947 11.947 11.947h35.84c6.827 0 11.947-5.12 11.947-11.947s-5.12-11.947-11.947-11.947h-35.84c-5.12-1.707-11.947 5.12-11.947 11.947z" />
<glyph unicode="&#xe904;" glyph-name="modern-5" data-tags="modern-5" d="M1010.347 511.147h-288.427v56.32c0 6.827-5.12 11.947-11.947 11.947h-133.12v32.427h133.12c6.827 0 11.947 5.12 11.947 11.947v199.68c0 6.827-5.12 11.947-11.947 11.947h-290.133c-6.827 0-11.947-5.12-11.947-11.947v-196.267c0-6.827 5.12-11.947 11.947-11.947h133.12v-32.427h-278.187v61.44h30.72c6.827 0 11.947 5.12 11.947 11.947v112.64c0 6.827-5.12 11.947-11.947 11.947h-85.333c-6.827 0-11.947-5.12-11.947-11.947v-112.64c0-6.827 5.12-11.947 11.947-11.947h30.72v-61.44h-30.72c-6.827 0-11.947-5.12-11.947-11.947v-56.32h-196.267c-6.827-3.413-11.947-8.533-11.947-15.36v-64.853c0-6.827 5.12-11.947 11.947-11.947h78.507v-349.867c0-6.827 5.12-11.947 11.947-11.947h723.627c6.827 0 11.947 5.12 11.947 11.947v349.867h168.96c6.827 0 11.947 5.12 11.947 11.947v64.853c3.413 6.827-1.707 11.947-8.533 11.947zM431.787 809.813h264.533v-172.373h-264.533v172.373zM232.107 755.2h59.733v-87.040h-59.733v87.040zM232.107 555.52h464.213v-44.373h-464.213v44.373zM815.787 86.187h-699.733v336.213h699.733v-336.213zM996.693 446.293h-972.8v39.253h194.56c0 0 0 0 0 0h489.813c0 0 0 0 0 0h288.427v-39.253z" />
<glyph unicode="&#xe905;" glyph-name="modern-6" data-tags="modern-6" d="M595.627 671.573h-165.547c-6.827 0-11.947-5.12-11.947-11.947v-141.653c0-6.827 5.12-11.947 11.947-11.947h165.547c6.827 0 11.947 5.12 11.947 11.947v141.653c0 6.827-5.12 11.947-11.947 11.947zM581.973 529.92h-139.947v116.053h139.947v-116.053zM996.693 243.2v484.693c0 0 0 0 0 0s0 0 0 0v168.96c0 6.827-5.12 11.947-11.947 11.947h-943.787c-6.827 1.707-13.653-5.12-13.653-11.947v-168.96c0 0 0 0 0 0s0 0 0 0v-484.693c0 0 0 0 0 0s0 0 0 0v-168.96c0-6.827 5.12-11.947 11.947-11.947h3.413v-63.147c0-6.827 5.12-11.947 11.947-11.947h911.36c6.827 0 11.947 5.12 11.947 11.947v63.147h3.413c6.827 0 11.947 5.12 11.947 11.947v168.96c3.413 0 3.413 0 3.413 0s0 0 0 0zM971.093 87.893h-303.787v143.36h303.787v-143.36zM382.293 87.893v143.36h257.707v-143.36h-257.707zM56.32 87.893h-3.413v143.36h303.787v-143.36h-300.373zM382.293 715.947h257.707v-459.093h-257.707v459.093zM641.707 741.547h-259.413v143.36h257.707v-143.36zM356.693 256.853h-303.787v459.093h303.787v-459.093zM667.307 256.853v459.093h303.787v-459.093h-303.787zM971.093 741.547h-303.787v143.36h303.787v-143.36zM356.693 884.907v-143.36h-303.787v143.36h303.787zM954.027 11.093h-884.053v51.2h300.373c0 0 0 0 0 0s0 0 0 0h283.307c0 0 0 0 0 0s0 0 0 0h300.373v-51.2zM607.573 437.76c0-6.827-5.12-11.947-11.947-11.947h-165.547c-6.827 0-11.947 5.12-11.947 11.947s5.12 11.947 11.947 11.947h165.547c6.827 1.707 11.947-5.12 11.947-11.947zM607.573 369.493c0-6.827-5.12-11.947-11.947-11.947h-165.547c-6.827 0-11.947 5.12-11.947 11.947s5.12 11.947 11.947 11.947h165.547c6.827 0 11.947-5.12 11.947-11.947z" />
<glyph unicode="&#xe906;" glyph-name="modern-7" data-tags="modern-7" d="M800.427 673.28c6.827 0 11.947 5.12 11.947 11.947v167.253c0 6.827-5.12 11.947-11.947 11.947h-576.853c-6.827 0-11.947-5.12-11.947-11.947v-167.253c0-6.827 5.12-11.947 11.947-11.947h46.080v-85.333h-46.080c-6.827 0-11.947-5.12-11.947-11.947v-68.267c0-6.827 5.12-11.947 11.947-11.947h46.080v-119.467h-46.080c-6.827 0-11.947-5.12-11.947-11.947v-68.267c0-6.827 5.12-11.947 11.947-11.947h46.080v-119.467h-46.080c-6.827 0-11.947-5.12-11.947-11.947v-68.267c0-6.827 5.12-11.947 11.947-11.947h46.080v-25.6c0-6.827 5.12-11.947 11.947-11.947s11.947 5.12 11.947 11.947v25.6h442.027v-25.6c0-6.827 5.12-11.947 11.947-11.947s11.947 5.12 11.947 11.947v25.6h37.547c6.827 0 11.947 5.12 11.947 11.947v68.267c0 6.827-5.12 11.947-11.947 11.947h-37.547v119.467h37.547c6.827 0 11.947 5.12 11.947 11.947v68.267c0 6.827-5.12 11.947-11.947 11.947h-37.547v119.467h37.547c6.827 0 11.947 5.12 11.947 11.947v68.267c0 6.827-5.12 11.947-11.947 11.947h-37.547v85.333h40.96zM237.227 840.533h551.253v-141.653h-551.253v141.653zM786.773 93.013h-549.547v42.667h551.253v-42.667zM737.28 161.28h-442.027v119.467h442.027v-119.467zM786.773 306.347h-549.547v42.667h551.253v-42.667zM737.28 374.613h-442.027v119.467h442.027v-119.467zM786.773 519.68h-549.547v42.667h551.253v-42.667zM737.28 587.947h-442.027v85.333h442.027v-85.333z" />
<glyph unicode="&#xe907;" glyph-name="modern-8" data-tags="modern-8" d="M962.56 871.253h-901.12c-6.827 0-11.947-5.12-11.947-11.947v-698.027c0-6.827 5.12-11.947 11.947-11.947h213.333v-98.987h-75.093c-6.827 0-11.947-5.12-11.947-11.947s5.12-11.947 11.947-11.947h622.933c6.827 0 11.947 5.12 11.947 11.947s-5.12 11.947-11.947 11.947h-75.093v98.987h213.333c6.827 0 11.947 5.12 11.947 11.947v698.027c3.413 6.827-3.413 11.947-10.24 11.947zM723.627 48.64h-423.253v98.987h423.253v-98.987zM950.613 173.227h-877.227v674.133h877.227v-674.133zM134.827 227.84h752.64c6.827 0 11.947 5.12 11.947 11.947v539.307c0 6.827-5.12 11.947-11.947 11.947h-752.64c-6.827 0-11.947-5.12-11.947-11.947v-539.307c0-6.827 5.12-11.947 11.947-11.947zM148.48 767.147h728.747v-513.707h-728.747v513.707zM570.027 430.933c-8.533-10.24-20.48-17.067-34.133-22.187-5.12-1.707-8.533-5.12-8.533-10.24s0-11.947 0-17.067c0-5.12-3.413-8.533-8.533-8.533-6.827 0-13.653 0-18.773 0s-8.533 3.413-8.533 8.533c0 5.12 0 8.533 0 13.653 0 10.24 0 10.24-10.24 11.947-11.947 1.707-23.893 5.12-34.133 10.24-8.533 3.413-10.24 6.827-6.827 15.36 1.707 6.827 3.413 13.653 5.12 20.48s5.12 8.533 11.947 5.12c11.947-6.827 23.893-10.24 37.547-11.947 8.533-1.707 17.067 0 25.6 3.413 15.36 6.827 17.067 23.893 5.12 34.133-3.413 3.413-8.533 6.827-13.653 8.533-13.653 5.12-27.307 10.24-39.253 17.067-20.48 11.947-32.427 29.013-30.72 52.907 1.707 27.307 17.067 44.373 42.667 52.907 10.24 3.413 10.24 3.413 10.24 13.653 0 3.413 0 6.827 0 10.24 0 8.533 1.707 10.24 10.24 10.24 1.707 0 5.12 0 6.827 0 17.067 0 17.067 0 17.067-17.067 0-11.947 0-11.947 11.947-13.653 8.533-1.707 18.773-3.413 27.307-8.533 5.12-1.707 6.827-5.12 5.12-10.24-1.707-6.827-3.413-15.36-6.827-22.187-1.707-6.827-5.12-8.533-11.947-5.12-13.653 6.827-27.307 8.533-42.667 8.533-3.413 0-8.533 0-11.947-1.707-13.653-5.12-15.36-20.48-3.413-29.013 5.12-5.12 11.947-6.827 18.773-10.24 11.947-5.12 22.187-8.533 34.133-15.36 35.84-20.48 44.373-64.853 20.48-93.867z" />
<glyph unicode="&#xe908;" glyph-name="helmet" data-tags="helmet" horiz-adv-x="1284" d="M1235.724 356.006l-492.581-38.651c-38.129-3.089-71.903-19.6-97.046-44.742l-94.525-94.525c-15.98-15.923-36.936-26.862-60.333-30.283l-0.583-0.070c-169.515-23.631-293.344-9.873-370.434 7.247l85.283 166.154c19.007 36.716 56.17 61.675 99.285 63.013l0.177 0.004 158.802 4.096c279.059 7.037 567.151 14.389 693.815 33.294l78.036-35.709v-29.408zM492.651-16.738v117.106l4.412 0.63c17.713 2.566 33.705 7.757 48.351 15.214l-0.878-0.406v-132.545zM53.424 375.016c2.562 296.022 243.127 535.006 539.51 535.006 237.149 0 438.562-153.004 510.908-365.682l1.123-3.799 24.891-75.515c-132.755-16.384-404.252-23.211-666.823-29.933l-158.908-4.201c-60.923-1.725-113.297-36.687-139.785-87.328l-0.426-0.896-90.64-175.501c-12.918 3.991-22.371 2.416-22.371 10.503 0 58.5 1.575 102.192 2.1 197.243zM1269.648 422.174l-88.854 40.646-30.459 92.529c-79.066 236.902-298.847 404.651-557.807 404.651-323.367 0-585.641-261.566-586.788-584.663v-0.11c-0.735-137.587-4.831-145.254-4.831-204.279 0-11.553 1.156-23.001 11.448-28.463 5.356-2.836 100.092-55.245 301.64-55.245 46.364 0.068 92.056 2.584 137.051 7.426l-5.66-0.494v-134.541c0-13.051 10.58-23.631 23.631-23.631v0h99.041c13.051 0 23.631 10.58 23.631 23.631v0 191.886l87.698 87.698c17.384 17.621 40.815 29.238 66.925 31.481l0.399 0.028 514.637 40.435c12.202 1.009 21.725 11.153 21.741 23.525v65.96c-0.21 9.309-5.77 17.269-13.717 20.945l-0.146 0.061zM512.291 305.487c-13.051 0-23.631-10.58-23.631-23.631s10.58-23.631 23.631-23.631c13.051 0 23.631 10.58 23.631 23.631v0c0 13.051-10.58 23.631-23.631 23.631v0z" />
<glyph unicode="&#xe909;" glyph-name="f" data-tags="f" horiz-adv-x="576" d="M575.81 951.639c-43.369 4.896-93.642 7.69-144.567 7.69-2.61 0-5.216-0.007-7.822-0.022l0.399 0.002c-150.647 0-253.997-85.007-253.997-240.32v-134.221h-169.822v-181.518h170.013v-466.578h203.952v466.578h169.374l25.949 181.518h-195.324v116.325c0 52.41 15.34 88.202 97.342 88.202h104.692v162.344z" />
<glyph unicode="&#xe90a;" glyph-name="g" data-tags="g" horiz-adv-x="1600" d="M999.116 436.163c0 0.178 0 0.387 0 0.598 0 29.842-3.046 58.972-8.842 87.097l0.478-2.774h-479.643v-175.588h288.347c-26.341-126.893-137.216-220.892-270.044-220.892-6.44 0-12.828 0.22-19.157 0.655l0.855-0.047c-174.378 5.060-313.81 147.629-313.81 322.763s139.433 317.703 313.345 322.752l0.465 0.011c1.889 0.045 4.112 0.071 6.343 0.071 76.099 0 145.203-29.951 196.168-78.706l-0.105 0.1 137.916 133.447c-86.578 82.639-204.116 133.495-333.533 133.495-2.386 0-4.77-0.017-7.148-0.052l0.36 0.004c-282.285 0-511.121-228.836-511.121-511.121s228.836-511.121 511.121-511.121v0c293.2 0 488.007 207.513 488.007 499.308zM1600.010 521.084h-144.812v146.217h-145.578v-146.217h-144.876v-146.217h144.876v-145.578h145.578v145.578h144.812v146.217z" />
<glyph unicode="&#xe90b;" glyph-name="in" data-tags="in" d="M234.954 621.301h-218.090v-685.3h218.217v685.3zM248.85 833.236c0.050 1.301 0.077 2.829 0.077 4.362 0 67.601-54.801 122.402-122.402 122.402s-122.402-54.801-122.402-122.402c0-66.904 53.678-121.271 120.316-122.384l0.104-0.001h1.333c2.426-0.182 5.256-0.287 8.109-0.287 63.466 0 114.915 51.449 114.915 114.915 0 1.194-0.018 2.383-0.055 3.569l0.004-0.174zM1019.876 328.779c0 210.666-107.11 309.019-250.579 309.019-2.152 0.077-4.682 0.122-7.221 0.122-82.531 0-154.162-46.671-189.938-115.061l-0.562-1.181h1.269v99.622h-217.519s2.602-64.088 0-685.3h217.519v382.626c-0.049 1.546-0.075 3.364-0.075 5.188 0 18.060 2.695 35.489 7.703 51.909l-0.33-1.258c15.657 47.967 59.582 82.187 111.632 83.122l0.11 0.002c78.683 0 110.473-62.819 110.473-154.827v-366.762h217.519v392.778z" />
<glyph unicode="&#xe90c;" glyph-name="tw" data-tags="tw" horiz-adv-x="1259" d="M1259.010 836.659c-43.218-19.44-93.349-33.546-145.889-39.797l-2.456-0.238c53.245 32.176 93.284 81.624 112.721 140.447l0.521 1.822c-47.075-28.278-101.852-49.857-160.181-61.638l-3.321-0.56c-47.12 50.518-114.074 82.010-188.383 82.010-142.142 0-257.37-115.228-257.37-257.37 0-0.431 0.001-0.861 0.003-1.291v0.067c0.188-20.863 2.496-41.078 6.719-60.581l-0.355 1.958c-214.66 11.229-403.432 113.313-530.002 268.212l-1.039 1.312c-22.057-37.229-35.092-82.057-35.092-129.931 0-89.13 45.181-167.706 113.889-214.077l0.916-0.582c-43.007 1.602-82.888 13.604-117.632 33.544l1.243-0.658v-3.574c0-0.124 0-0.27 0-0.417 0-124.069 87.935-227.598 204.88-251.664l1.66-0.285c-20.132-5.449-43.246-8.58-67.090-8.58-0.265 0-0.531 0-0.797 0.001h0.041c-17.241 0.104-34.086 1.4-50.569 3.809l1.954-0.234c34.148-103.034 128.636-176.466 240.591-178.725l0.264-0.004c-86.842-68.636-197.916-110.099-318.674-110.099-0.39 0-0.78 0-1.168 0.001h0.060c-1.646-0.022-3.59-0.034-5.536-0.034-19.975 0-39.646 1.311-58.927 3.853l2.266-0.244c111.813-72.63 248.574-115.817 395.421-115.817 404.738 0 732.852 328.063 732.933 732.782v0.008c0 11.438 0 22.163-0.787 33.601 50.438 37.208 93.213 81.19 127.988 131.157l1.197 1.818z" />
<glyph unicode="&#xe90d;" glyph-name="yt" data-tags="yt" horiz-adv-x="1459" d="M579.25 259.369v408.58l393.286-205.382zM729.5 960v0c-306.253 0-509.378-14.566-509.378-14.566-57.217-0.657-108.811-24.203-146.156-61.891l-0.015-0.016c-32.664-39.372-53.8-89.366-57.637-144.129l-0.045-0.804c-9.117-70.482-14.405-152.159-14.566-235.040v-110.905c0.142-83.064 5.43-164.742 15.563-244.911l-0.998 9.668c4.117-55.531 25.207-105.467 58.038-145.38l-0.356 0.446c42.693-37.799 98.954-61.134 160.65-61.905l0.16-0.002s116.164-10.924 494.739-14.566v0c306.253 0 509.378 15.294 509.378 15.294 57.105 0.678 108.653 23.914 146.26 61.193l-0.015-0.015c32.432 39.481 53.494 89.413 57.558 144.077l0.051 0.856c9.136 70.505 14.424 152.182 14.566 235.068v110.877c-0.161 83.081-5.448 164.757-15.564 244.931l0.998-9.688c-3.86 55.56-24.97 105.554-57.95 145.357l0.341-0.423c-37.394 37.695-89.006 61.237-146.118 61.905l-0.127 0.001s-203.052 14.566-509.378 14.566z" />
<glyph unicode="&#xe90e;" glyph-name="mirrolab" data-tags="mirrolab" horiz-adv-x="5280" d="M210.768 365.44v-408.192h-210.4v706.336h189.152v-84.672c55.616 66.784 130.496 100.288 224.64 100.288 98.912 0 162.336-47.488 190.56-142.784 54.752 95.008 138.016 142.496 250.336 142.496 74.304 0 132.448-26.272 174.336-78.496s62.88-116.512 62.88-192.8v-450.688h-208.992v382.784c0 84.672-30.176 127.136-90.528 127.136-59.232 0-106.464-33.792-141.376-101.696v-408.192h-208.992v382.784c0 84.672-30.176 127.136-90.528 127.136-60.064 0.288-107.008-33.536-141.088-101.408zM1215.184 848.512c0 29.056 10.912 54.752 32.416 76.832s47.488 33.248 77.664 33.248c29.056 0 54.496-10.912 76.288-32.416 21.504-21.792 32.416-47.488 32.416-77.664 0-31.008-10.624-57.28-31.84-78.496s-46.944-31.84-76.832-31.84c-30.176 0-56.16 10.624-77.664 31.84-21.792 21.248-32.416 47.488-32.416 78.496zM1220.784-42.752v706.336h208.992v-706.336h-208.992zM2004.496 678.912v-214.592c-53.632 0-98.080-8.384-132.704-24.576-34.912-16.48-65.376-44.992-91.936-85.504v-396.736h-208.992v706.048h187.744v-108.672c52.8 82.688 134.944 124.064 245.888 124.064zM2528.656 678.912v-214.592c-53.632 0-98.080-8.384-132.704-24.576-34.912-16.48-65.376-44.992-91.936-85.504v-396.736h-208.992v706.048h187.744v-108.672c52.8 82.688 134.656 124.064 245.856 124.064zM3206.48 45.536c-72.64-72.928-160.096-109.536-262.624-109.536s-190.272 36.608-262.624 109.536c-72.64 72.928-108.672 161.216-108.672 264.864s36.32 191.936 108.672 264.864c72.352 72.928 160.096 109.536 262.624 109.536s190.272-36.608 262.624-109.536c72.352-72.928 108.672-161.216 108.672-264.864s-36.32-191.936-108.672-264.864zM3106.16 310.4c0 48.064-15.36 89.12-45.824 123.488-30.72 34.368-69.568 51.68-116.512 51.68-46.112 0-84.672-17.312-115.104-51.68-30.72-34.368-45.824-75.424-45.824-123.488 0-50.016 15.104-91.936 45.248-125.728s68.736-50.848 115.936-50.848c46.944 0 85.76 17.056 116.512 50.848 30.176 34.080 45.536 75.712 45.536 125.728zM3414.064 960h210.4v-1002.752h-210.4v1002.752zM3969.232-63.712c-70.688 0-125.44 17.312-164.576 51.68s-58.688 84.384-58.688 150.304c0 48.064 10.624 88.288 31.84 120.704s52.8 57.28 94.72 74.048c41.92 17.056 88.576 29.056 139.712 36.032 51.424 6.976 112.864 10.624 184.416 10.624v15.648c0 86.624-46.656 129.92-139.712 129.92-71.52 0-141.376-25.44-208.992-76.288l-80.48 121.536c93.312 76.288 198.656 114.272 316.288 114.272 98.912 0 177.152-25.44 235.264-76.288s86.88-121.536 86.88-211.776v-439.232h-208.992v88.864c-63.424-73.472-139.424-110.080-227.712-110.080zM4053.904 84.352c50.848 0 98.336 26.816 142.784 80.48v107.296c-40.512 0-72.64-0.832-96.672-2.784s-48.32-6.144-72.64-12.576c-24.576-6.72-42.464-17.312-53.632-32.416s-17.056-34.368-17.056-57.824c-0.288-54.752 32.128-82.144 97.216-82.144zM4930.928 683.392c101.696 0 185.248-36.032 250.624-108.128s98.080-160.384 98.080-264.864c0-104.48-32.704-193.056-98.080-265.44-65.376-72.64-148.928-108.672-250.624-108.672-41.344 0-82.688 10.336-123.488 31.008-41.088 20.672-70.976 46.656-89.696 77.664v-87.456h-187.744v1002.496h210.4v-354.56c37.44 51.968 101.152 77.952 190.56 77.952zM5020.048 185.504c33.792 34.368 50.848 76 50.848 124.896s-17.056 90.528-50.848 124.32c-33.792 33.792-74.88 50.848-122.944 50.848-31.008 0-61.184-7.552-90.528-22.624-29.056-15.072-51.424-34.912-66.496-59.232v-190.56c15.072-23.456 37.44-42.752 67.040-57.28s59.52-21.792 89.696-21.792c48.352-0.288 89.12 17.056 123.2 51.424z" />
<glyph unicode="&#xe90f;" glyph-name="logo1" data-tags="logo1" horiz-adv-x="5964" d="M0 456.522v-402.707h407.764c0 222.519-182.998 402.707-407.764 402.707zM0 960v-402.707c281.52 0 509.752-225.422 509.752-503.478h408.045c0 500.481-411.042 906.185-917.798 906.185zM1132.263 912.143c-136.507-46.584-253.376-119.573-349.702-213.526l0.19 0.185c147.14-172.476 236.661-397.997 236.661-644.427 0-0.23 0-0.459 0-0.689v0.035h407.858c0 0.409 0.001 0.893 0.001 1.378 0 324.597-111.069 623.253-297.275 860.036l2.268-2.992zM2034.795 294.035l-78.856 215.402h-188.149v-449.534h136.171v270.376l100.209-270.376h60.687l100.489 270.376v-270.376h136.265v449.534h-187.868zM2532.466 393.869c-115.287 0-182.717-79.605-182.717-170.635s67.336-171.666 182.717-171.666 183.466 80.448 183.466 171.478-67.524 170.635-183.466 170.635zM2532.466 159.175c-37.461 0-57.971 28.096-57.971 64.059s20.885 63.403 57.971 63.403 58.627-28.096 58.627-63.403-20.885-64.246-58.627-64.246zM2974.133 351.257c-21.167 26.043-53.199 42.548-89.086 42.548-0.914 0-1.826-0.011-2.735-0.032l0.135 0.002c-80.26 0-143.663-62.747-143.663-170.635 0-112.383 64.714-171.291 143.663-171.291 0.382-0.004 0.834-0.007 1.287-0.007 36.283 0 68.72 16.467 90.245 42.335l0.154 0.19v-34.371h121.749v449.534h-121.749zM2974.133 181.277c-12.749-13.46-30.637-21.941-50.509-22.288l-0.064-0.001c-33.059 0-60.687 23.601-60.687 64.059s28.096 63.403 60.687 63.403c19.851-0.047 37.767-8.289 50.553-21.52l0.019-0.020zM3318.026 393.681c-105.172 0-177.378-76.233-177.378-170.635 0-107.232 79.605-171.291 181.406-171.291 48.512 0 106.577 12.83 138.887 40.458l-49.917 74.922c-16.202-14.142-56.192-22.945-74.922-22.945-39.802 0-63.403 20.229-70.146 41.114h221.208v24.912c0.094 114.631-73.424 183.466-169.137 183.466zM3264.738 262.567c5.354 22.679 25.423 39.298 49.374 39.298 1.378 0 2.742-0.055 4.092-0.163l-0.178 0.011c39.147 0 50.573-24.912 53.944-39.147zM3650.4 349.852v35.682h-121.749v-325.725h121.749v199.668c13.486 16.202 46.826 22.945 72.113 22.945 0.815 0.025 1.774 0.039 2.736 0.039 9.024 0 17.757-1.245 26.036-3.573l-0.676 0.162v115.942c-39.528-1.49-74.812-18.504-100.153-45.082l-0.055-0.058zM4025.011 393.681c-57.316 0-93.091-23.601-112.383-45.234v37.461h-121.749v-326.099h121.749v200.979c11.847 15.654 30.439 25.663 51.37 25.663 0.181 0 0.361-0.001 0.541-0.002h-0.028c29.032 0 46.826-12.83 46.826-46.826v-179.813h121.749v231.322c0.843 56.66-32.217 102.55-107.794 102.55zM4468.27 59.903h341.177v118.658h-204.725v49.168h200.323v118.752h-200.323v44.485h205.006v118.658h-341.177zM5185.745 385.534h-132.612l-43.83-76.14-43.83 76.14h-132.987l99.74-158.461-106.296-167.17h132.144l52.352 86.254 50.573-86.254h132.893l-107.701 167.17zM5431.864 393.681c-0.824 0.021-1.794 0.033-2.766 0.033-35.846 0-67.847-16.467-88.849-42.25l-0.165-0.208v34.277h-121.749v-449.534h121.749v158.273c21.34-26.156 53.573-42.725 89.676-42.725 0.74 0 1.478 0.007 2.214 0.021l-0.11-0.002c80.916 0 142.914 59.376 142.914 171.291s-61.717 170.823-142.914 170.823zM5389.908 158.987c-19.665 0.686-37.241 9.093-49.894 22.265l-0.023 0.024v82.883c12.578 13.343 30.214 21.798 49.828 22.288l0.089 0.002c0.395 0.009 0.861 0.015 1.327 0.015 32.355 0 58.676-25.839 59.452-58.007l0.001-0.072q0-2.622 0-5.338c-0.094-41.114-28.19-64.059-60.5-64.059zM5780.44 393.681c-115.287 0-182.717-79.605-182.717-170.635s67.711-171.478 182.998-171.478 183.466 80.26 183.466 171.291-67.524 170.823-183.466 170.823zM5780.44 158.987c-37.461 0-57.971 28.096-57.971 64.059s20.885 63.403 57.971 63.403 58.627-28.096 58.627-63.403-20.604-64.059-58.346-64.059zM4414.139 172.473h-226.359v101.145h226.359z" />
<glyph unicode="&#xe910;" glyph-name="service" data-tags="service" horiz-adv-x="1010" d="M572.635 45.576c0 60.872 0 119.488 0 180.359-13.527-9.018-65.381-54.108-99.197-78.906h36.072v-117.233c0-24.8-20.291-45.090-45.090-45.090h-286.32c-24.8 0-45.090 20.291-45.090 45.090v108.215h-87.924c-24.8 0-45.090 20.291-45.090 45.090v286.32c0 24.8 20.291 45.090 45.090 45.090h117.233v-367.481h218.684c-60.872 63.126 56.363 146.542 63.126 155.56 29.309 27.054 148.796 135.269 182.614 160.069 15.782 11.273 38.327 18.036 56.363 18.036 65.381 2.255 207.414 0 214.175 0-108.215-144.287-214.175-286.32-324.647-435.116zM1007.75 379.239c0 33.818-18.036 56.363-38.327 78.906 0 0-2.255 0-4.509 0-117.233-155.56-234.466-313.374-353.954-473.443 6.764 0 11.273-2.255 15.782-2.255 121.742 0 243.484 0 365.226 0 15.782 0 18.036 4.509 18.036 18.036-2.255 128.506-2.255 254.757-2.255 378.753zM619.978 701.631c20.291 0 27.054 0 45.090 0 11.273 0 15.782-2.255 15.782-15.782 4.509-51.854 33.818-87.924 76.652-112.724 20.291-13.527 45.090-13.527 69.89-13.527 60.872-2.255 123.997 49.599 135.269 110.469 4.509 29.309 2.255 58.617 4.509 87.924 0 11.273-4.509 13.527-15.782 13.527-67.635 0-214.175 0-268.284 0-11.273 0-20.291-4.509-29.309-13.527-13.527-13.527-27.054-27.054-38.327-40.581-2.255-2.255-6.764-9.018-4.509-9.018 0-2.255 6.764-6.764 9.018-6.764zM665.069 825.628c11.273-13.527 24.8-18.036 40.581-18.036 51.854 0 209.668 0 245.739 0 11.273 0 13.527 2.255 13.527 13.527 0 13.527 0 27.054 0 40.581 0 11.273-6.764 15.782-15.782 18.036-20.291 2.255-270.538 29.309-315.629 33.818-9.018 0-20.291 0-22.545-11.273 0-6.764 2.255-15.782 6.764-22.545 15.782-18.036 33.818-36.072 47.345-54.108z" />
<glyph unicode="&#xe911;" glyph-name="catering" data-tags="catering" horiz-adv-x="1010" d="M744.852 516.011v120.073c0 0 0 0 0 0 99.721-2.035 193.337-42.738 258.462-111.932 10.176-10.176 8.141-28.492-2.035-36.633l-54.949-42.738c-10.176-8.141-26.457-8.141-36.633 2.035-42.738 40.703-101.756 67.159-164.846 69.194zM999.244 88.634l-54.949 42.738c-10.176 8.141-26.457 8.141-36.633-2.035-42.738-44.773-101.756-71.229-164.846-71.229-120.073 0-217.759 93.616-227.935 209.618l-101.756-101.756c48.844-134.319 179.092-229.97 329.691-229.97 99.721 0 193.337 40.703 260.497 113.967 10.176 12.211 8.141 28.492-4.070 38.668zM661.412 516.011h10.176v120.073h-71.229c-16.281 0-32.562-6.105-44.773-18.316l-193.337-193.337c-4.070-4.070-8.141-4.070-12.211 0l-193.337 193.337c-12.211 12.211-28.492 18.316-44.773 18.316h-77.334c-18.316 0-34.598-16.281-34.598-34.598v-594.258c0-18.316 16.281-34.598 34.598-34.598h69.194c18.316 0 34.598 16.281 34.598 34.598v433.484l195.372-195.372c6.105-6.105 14.246-10.176 24.422-10.176s18.316 4.070 24.422 10.176v0l225.899 232.005c14.246 14.246 32.562 38.668 52.914 38.668z" />
<glyph unicode="&#xe912;" glyph-name="hr-club" data-tags="hr-club" horiz-adv-x="1010" d="M809.095 340.549c-12.301 0-24.601-1.367-35.535-2.733-15.034 39.635-30.068 77.903-39.635 105.238h64.236c6.834 0 10.934-5.467 10.934-10.934s-5.467-10.934-10.934-10.934h-6.834c-16.401 0-28.701-13.667-28.701-28.701s13.667-28.701 28.701-28.701h6.834c38.269 0 69.703 31.435 69.703 69.703s-32.802 66.969-71.069 66.969h-106.604c-9.567 0-19.134-4.1-23.235-12.301-5.467-8.2-6.834-17.768-2.733-27.335 1.367-2.733 5.467-16.401 13.667-36.902h-269.244c-6.834 19.134-13.667 35.535-19.134 49.202h32.802c16.401 0 28.701 13.667 28.701 28.701s-13.667 28.701-28.701 28.701h-127.106c-16.401 0-28.701-13.667-28.701-28.701s13.667-28.701 28.701-28.701h31.435c4.1-12.301 13.667-35.535 25.968-65.602l-62.869-88.837c-27.335 13.667-57.402 21.868-90.204 21.868-109.338 0-199.542-90.204-199.542-200.908s90.204-200.908 200.908-200.908c101.138 0 184.507 75.17 198.175 170.84h87.47c0 0 0 0 0 0 1.367 0 4.1 0 5.467 0 0 0 1.367 0 1.367 0 1.367 0 1.367 0 2.733 0 0 0 1.367 0 1.367 1.367 1.367 0 1.367 0 2.733 1.367 1.367 0 2.733 1.367 2.733 1.367s1.367 1.367 1.367 1.367 1.367 1.367 2.733 2.733c0 0 1.367 1.367 1.367 1.367l192.708 240.543c5.467-13.667 10.934-28.701 16.401-43.735-65.602-32.802-109.338-101.138-109.338-179.041 0-110.705 90.204-200.908 200.908-200.908s200.908 90.204 200.908 200.908c-1.367 113.438-90.204 203.642-200.908 203.642zM378.578 341.915c23.235-58.769 47.835-124.372 65.602-173.574h-45.101c-6.834 45.101-28.701 86.103-60.135 116.172l39.635 57.402zM304.774 236.678c17.768-19.134 30.068-42.369 35.535-68.336h-83.37l47.835 68.336zM200.904-2.498c-77.903 0-142.139 64.236-142.139 142.139s62.869 142.139 142.139 142.139c20.501 0 39.635-4.1 56.035-12.301l-80.636-113.438c-6.834-8.2-6.834-20.501-1.367-30.068s15.034-15.034 25.968-15.034h139.405c-13.667-64.236-71.069-113.438-139.405-113.438zM494.749 198.409c-17.768 49.202-42.369 112.071-64.236 168.107h199.542l-135.305-168.107zM809.095-2.498c-77.903 0-142.139 64.236-142.139 142.139 0 53.302 28.701 99.771 72.436 124.372 17.768-47.835 35.535-91.57 42.369-110.705 4.1-10.934 15.034-17.768 27.335-17.768 4.1 0 6.834 0 10.934 2.733 15.034 5.467 21.868 23.235 16.401 38.269-6.834 19.134-23.235 60.135-41.002 106.604 5.467 0 9.567 1.367 15.034 1.367 77.903 0 142.139-64.236 142.139-142.139s-65.602-144.872-143.505-144.872z" />
<glyph unicode="&#xe913;" glyph-name="academy" data-tags="academy" horiz-adv-x="1010" d="M1010.005 441.893c0-10.688-7.125-21.376-16.032-26.72l-220.883-110.441v-338.449c0-16.032-14.251-30.283-30.283-30.283h-55.221c-16.032 0-30.283 14.251-30.283 30.283v279.665l-137.161-67.689c-8.907-3.563-17.813-3.563-26.72 0l-165.663 81.94v-293.916c0-16.032-14.251-30.283-30.283-30.283h-55.221c-16.032 0-30.283 14.251-30.283 30.283v432.858c0 10.688 5.344 19.595 14.251 24.939s19.595 5.344 30.283 1.781l249.384-124.692 285.009 142.505-293.916 154.975-381.201-187.037v-192.381c0-16.032-14.251-30.283-30.283-30.283h-55.221c-16.032 0-30.283 14.251-30.283 30.283v247.603c0 10.688 7.125 21.376 17.813 26.72l470.266 229.789c8.907 3.563 19.595 3.563 26.72 0l480.954-254.728c8.907-5.344 14.251-16.032 14.251-26.72z" />
<glyph unicode="&#xe914;" glyph-name="volyn-hub" data-tags="volyn-hub" horiz-adv-x="1010" d="M646.548 557.808l-244.281-597.579c-6.057-14.132-18.17-22.208-34.321-22.208h-88.829c-14.132 0-28.264 8.075-34.321 22.208l-242.262 597.579c-8.075 18.17 6.057 38.359 26.245 38.359h86.81c18.17 0 34.321-10.094 40.377-28.264l169.584-446.165 167.565 448.184c6.057 16.151 22.208 28.264 40.377 28.264h86.81c20.189-2.019 34.321-22.208 26.245-40.377zM981.677 596.165h-86.81c-18.17 0-34.321-10.094-40.377-28.264l-92.867-246.3h-141.32l-56.528-137.282h145.357l-80.753-213.998c-6.057-16.151 6.057-34.321 24.226-34.321h76.716c14.132 0 28.264 8.075 32.302 22.208l246.3 599.598c8.075 18.17-6.057 38.359-26.245 38.359z" />
<glyph unicode="&#xe915;" glyph-name="engineering" data-tags="engineering" horiz-adv-x="1010" d="M1010.249 46.539v-73.691c0-19.507-17.339-36.846-36.846-36.846h-572.194c-2.167 0-2.167 0-4.335 0v0c-30.344 2.167-49.851 43.348-23.842 69.356l333.78 335.948c15.172 15.172 34.679 23.842 54.186 23.842h143.048c19.507 0 36.846-17.339 36.846-36.846v-73.691c0-19.507-17.339-36.846-36.846-36.846h-88.863c-15.172 0-32.511-6.502-43.348-17.339l-112.704-117.039h312.106c23.842 0 39.014-17.339 39.014-36.846zM405.545 228.599v0l247.083 247.083c15.172 15.172 34.679 23.842 54.186 23.842h266.59c19.507 0 36.846 17.339 36.846 36.846v71.523c0 19.507-17.339 36.846-36.846 36.846h-331.613c-17.339 0-34.679-6.502-47.683-19.507l-205.902-205.902c-4.335-4.335-8.67-4.335-13.005 0l-208.070 203.735c-13.005 13.005-30.344 19.507-47.683 19.507h-82.361c-19.507 0-36.846-17.339-36.846-36.846v-632.88c0-19.507 17.339-36.846 36.846-36.846h73.691c19.507 0 36.846 17.339 36.846 36.846v461.657l208.070-208.070c6.502-6.502 15.172-10.837 26.009-10.837 8.67 0 17.339 4.335 23.842 13.005z" />
<glyph unicode="&#xe916;" glyph-name="planing" data-tags="planing" horiz-adv-x="1010" d="M1010.244 356.132c0-74.265-31.828-144.287-82.752-193.090s-120.946-80.63-197.334-80.63h-21.219v-110.337c0-19.097-16.975-36.072-36.072-36.072h-72.143c-19.097 0-36.072 16.975-36.072 36.072v222.795c0 16.975 12.731 29.706 29.706 29.706h135.799c36.072 0 70.021 14.853 93.362 38.194s38.194 55.169 38.194 91.24c0 36.072-14.853 67.899-38.194 91.24-23.341 21.219-53.047 36.072-89.118 38.194h-42.438c-21.219 0-40.316-8.488-53.047-23.341l-239.77-237.649c-6.366-6.366-14.853-10.609-25.463-10.609s-19.097 4.244-25.463 10.609v0l-203.698 203.698v-454.080c0-19.097-16.975-36.072-36.072-36.072h-72.143c-19.097 0-36.072 16.975-36.072 36.072v619.584c0 19.097 16.975 36.072 36.072 36.072h80.63c16.975 0 36.072-6.366 46.682-19.097l201.576-201.576c4.244-4.244 8.488-4.244 12.731 0l201.576 201.576c12.731 12.731 29.706 19.097 46.682 19.097h114.58c2.122 0 6.366 0 8.488 0 67.899-4.244 131.556-33.95 176.115-78.508 53.047-50.925 84.874-118.824 84.874-193.090z" />
<glyph unicode="&#xe917;" glyph-name="forum" data-tags="forum" horiz-adv-x="1010" d="M525.96 545.56v400.189c0 11.5 11.5 18.4 20.7 11.5l351.891-204.695c9.2-4.6 9.2-18.4 0-25.3l-344.991-200.095c-11.5-4.6-27.6 4.6-27.6 18.4zM921.549 692.756l-344.991-200.095c-11.5-6.9-11.5-25.3 0-32.199l344.991-200.095c9.2-4.6 20.7 2.3 20.7 11.5v409.388c0 11.5-11.5 18.4-20.7 11.5zM463.861 957.248l-351.891-204.695c-9.2-4.6-9.2-18.4 0-25.3l344.991-200.095c11.5-6.9 27.6 2.3 27.6 16.1v402.488c0 9.2-11.5 16.1-20.7 11.5zM436.263 492.662l-344.991 200.095c-9.2 4.6-20.7-2.3-20.7-11.5v-407.088c0-11.5 11.5-18.4 20.7-11.5l344.991 200.095c13.8 6.9 13.8 23 0 29.9zM900.849 225.87l-344.991 200.095c-11.5 6.9-27.6-2.3-27.6-16.1v-400.189c0-11.5 11.5-18.4 20.7-11.5l351.891 204.695c9.2 4.6 9.2 18.4 0 23zM916.949 163.771l-172.496-98.897c-11.5-6.9-11.5-20.7 0-27.6l172.496-98.897c11.5-6.9 25.3 2.3 25.3 13.8v200.095c0 11.5-13.8 18.4-25.3 11.5zM456.961 425.963l-344.991-200.095c-9.2-4.6-9.2-18.4 0-25.3l351.891-204.695c9.2-4.6 20.7 2.3 20.7 11.5v402.488c0 13.8-16.1 23-27.6 16.1z" />
<glyph unicode="&#xe918;" glyph-name="new-window" data-tags="new-window" d="M256 960v-256h-256v-768h768v256h256v768zM682.667 277.333v-256h-597.333v597.333h597.333zM938.667 277.333h-170.667v426.667h-426.667v170.667h597.333z" />
<glyph unicode="&#xe919;" glyph-name="world" data-tags="world" d="M937.265 732.879l-15.32-4.857-81.585-7.269-23.045-36.8-16.721 5.313-64.929 58.54-9.42 30.444-12.614 32.464-40.809 36.604-48.143 9.42-1.108-22.034 47.165-46.024 23.077-27.184-25.946-13.559-21.121 6.226-31.65 13.201 1.076 25.522-41.526 17.080-13.788-60.007-41.852-9.485 4.14-33.475 54.531-10.496 9.42 53.488 45.013-6.649 20.926-12.256h33.573l22.979-46.024 60.92-61.8-4.465-24.022-49.12 6.258-84.877-42.862-61.115-73.306-7.953-32.464h-21.936l-40.874 18.84-39.701-18.84 9.876-41.884 17.275 19.915 30.378 0.945-2.119-37.614 25.163-7.366 25.131-28.227 41.037 11.539 46.871-7.399 54.433-14.635 27.184-3.194 46.089-52.315 88.951-52.315-57.53-109.91-60.724-28.227-23.045-62.81-87.876-58.671-9.355-33.833c224.644 54.107 391.758 255.902 391.758 497.169-0.065 105.379-32.008 203.457-86.702 284.846zM570.899 180.429l-37.289 69.134 34.225 71.318-34.225 10.235-38.429 38.592-85.138 19.101-28.26 59.127v-35.105h-12.451l-73.371 99.48v81.715l-53.782 87.452-85.399-15.222h-57.53l-28.944 18.97 36.93 29.27-36.832-8.507c-44.394-75.816-70.275-163.789-70.275-258.021 0-282.695 229.174-511.967 511.902-511.967 21.773 0 43.123 1.923 64.244 4.465l-5.346 62.028c0 0 23.501 92.113 23.501 95.242-0.033 3.162-23.533 82.693-23.533 82.693zM190.354 794.907l90.94 12.679 41.917 22.979 47.165-13.592 75.359 4.172 25.815 40.581 37.647-6.193 91.429 8.572 25.196 27.771 35.528 23.729 50.261-7.562 18.318 2.771c-66.2 31.161-139.865 49.186-217.929 49.186-158.9 0-300.981-72.426-394.789-186.149h0.261l72.882 21.056zM533.643 909.087l52.282 28.781 33.573-19.394-48.599-36.995-46.415-4.661-20.893 13.559 30.052 18.709zM378.785 904.882l23.077-9.615 30.215 9.615 16.46-28.52-69.753-18.318-33.54 19.622c-0.033 0 32.79 21.121 33.54 27.217z" />
<glyph unicode="&#xe91a;" glyph-name="arrow-left" data-tags="arrow-left" horiz-adv-x="2944" d="M2944 320.128v256h-2330.624v383.872l-613.248-511.872 613.248-511.872v383.872h2330.624z" />
<glyph unicode="&#xe91b;" glyph-name="arrow-left-big" data-tags="arrow-left-big" d="M529.657 960v-238.928h494.182v-546.143h-494.182v-238.928l-529.481 512 529.481 512z" />
<glyph unicode="&#xe91c;" glyph-name="arrow-right" data-tags="arrow-right" horiz-adv-x="2944" d="M-0.128 575.872v-256h2330.752v-383.872l613.248 511.872-613.248 511.872v-383.872h-2330.752z" />
<glyph unicode="&#xe91d;" glyph-name="arrow-right-big" data-tags="arrow-right-big" d="M494.563-64v238.928h-494.402v546.143h494.402v238.928l529.73-512-529.73-512z" />
<glyph unicode="&#xe91e;" glyph-name="marker" data-tags="marker" horiz-adv-x="860" d="M729.088 837.12c-77.447 74.874-182.653 121.461-298.732 122.877l-0.276 0.003c-116.355-1.419-221.561-48.006-299.131-122.999l0.123 0.119c-80.551-70.924-131.105-174.272-131.105-289.428 0-1.784 0.012-3.565 0.036-5.344l-0.003 0.27c-0.020-1.535-0.031-3.348-0.031-5.164 0-120.859 50.235-229.986 130.965-307.638l0.139-0.133 299.008-293.683 299.008 293.683c80.526 79.956 130.536 190.553 131.072 312.832v0.102c-2.473 116.244-52.283 220.39-130.857 294.302l-0.215 0.2zM430.080 304.64c-124.419 0-225.28 100.861-225.28 225.28s100.861 225.28 225.28 225.28c124.419 0 225.28-100.861 225.28-225.28v0c0-124.419-100.861-225.28-225.28-225.28v0z" />
<glyph unicode="&#xe91f;" glyph-name="arrow-down" data-tags="arrow-down" horiz-adv-x="1757" d="M1758.053 813.289c0 14.026-6.827 29.913-17.501 40.588l-88.126 88.002c-10.674 10.674-26.81 17.625-40.712 17.625s-29.789-6.951-40.339-17.625l-692.72-692.348-692.348 692.348c-10.302 10.674-26.438 17.625-40.339 17.625-16.136 0-30.037-6.951-40.464-17.625l-88.126-88.002c-10.674-10.674-17.749-26.562-17.749-40.588 0-14.15 7.075-29.913 17.749-40.464l820.938-821.186c10.674-10.426 26.438-17.501 40.339-17.501 14.274 0 30.037 7.075 40.712 17.501l821.186 821.186c10.674 10.55 17.501 26.314 17.501 40.464z" />
<glyph unicode="&#xe920;" glyph-name="night" data-tags="night" horiz-adv-x="1114" d="M948.61 232.614c-114.767-33.837-284.741 39.575-387.042 167.402-70.443 88.054-166.808 274.65-20.777 537.427 1.217 2.106 1.935 4.633 1.935 7.328 0 8.042-6.396 14.59-14.379 14.834l-0.022 0.001h-16.424c-282.198-0.683-510.701-229.606-510.701-511.9 0-282.715 229.186-511.901 511.901-511.901 196.215 0 366.646 110.396 452.568 272.465l1.343 2.777c1.096 2.019 1.74 4.42 1.74 6.972 0 8.196-6.644 14.841-14.841 14.841-1.538 0-3.022-0.234-4.417-0.669l0.105 0.028zM1098.797 826.039h-45.313v44.72c0 8.251-6.689 14.94-14.94 14.94s-14.94-6.689-14.94-14.94v0-44.72h-44.126c-8.251 0-14.94-6.689-14.94-14.94s6.689-14.94 14.94-14.94v0h44.72v-44.72c0-8.251 6.689-14.94 14.94-14.94s14.94 6.689 14.94 14.94v0 44.72h44.72c8.251 0 14.94 6.689 14.94 14.94s-6.689 14.94-14.94 14.94v0zM758.255 527.644h27.307v-27.307c0-8.251 6.689-14.94 14.94-14.94s14.94 6.689 14.94 14.94v0 27.307h27.307c8.251 0 14.94 6.689 14.94 14.94s-6.689 14.94-14.94 14.94v0h-26.713v28.296c0 8.251-6.689 14.94-14.94 14.94s-14.94-6.689-14.94-14.94v0-27.307h-27.9c-8.251 0-14.94-6.689-14.94-14.94s6.689-14.94 14.94-14.94v0z" />
<glyph unicode="&#xe921;" glyph-name="officeworker" data-tags="officeworker" d="M555.94 313.856l61.952 28.314c3.635 1.659 5.96 5.284 5.96 9.267v53.309c2.744 10.414 8.438 20.439 14.438 31.037 10.035 17.705 21.422 37.786 21.422 64.43 0 1.014 0.010 2.15 0.020 3.318 16.62 11.448 27.433 30.167 32.133 55.828 0.645 3.543 1.905 7.414 3.226 11.51 3.287 10.138 7.004 21.627 3.686 34.294-3.144 11.981-9.042 17.050-14.408 19.139 6.318 28.416 18.084 101.765-16.732 145.193-18.801 23.45-47.759 34.324-86.139 32.451-18.135 6.349-144.21 48.138-210.821 7.588-22.723-13.824-36.106-35.451-39.803-64.266-10.906-85.023-6.83-106.394 2.939-119.777-6.185-0.809-14.828-4.864-18.893-20.326-3.308-12.677 0.41-24.156 3.676-34.304 1.341-4.096 2.591-7.967 3.236-11.51 4.721-25.661 15.514-44.38 32.143-55.828 0.010-1.167 0.020-2.304 0.020-3.318 0-26.644 11.377-46.725 21.432-64.43 6.001-10.598 11.704-20.623 14.438-31.037v-53.309c0-3.983 2.324-7.608 5.949-9.267l61.962-28.232c-1.864-16.701 7.752-38.175 13.138-48.507l-32.389-184.525c-0.522-2.959 0.307-6.001 2.232-8.305 1.925-2.294 4.792-3.625 7.803-3.625h116.593c3 0 5.847 1.331 7.803 3.625 1.925 2.304 2.755 5.345 2.232 8.305l-32.399 184.525c5.376 10.332 14.961 31.754 13.148 48.435zM364.308 332.329c-0.666 3.082-2.744 5.693-5.612 7.035-2.857 1.341-6.185 1.29-9.001-0.164-0.676-0.348-70.001-35.983-140.585-66.703-109.957-47.872-108.001-187.648-107.858-193.577 0.123-5.53 4.639-9.943 10.179-9.943h297.626c0.061 0 0.133 0.010 0.215 0 5.622 0 10.168 4.557 10.168 10.179 0 1.454-0.297 2.836-0.86 4.086l-54.272 249.088zM804.874 272.497c-70.584 30.72-139.889 66.355-140.585 66.703-2.796 1.444-6.124 1.495-8.991 0.164-2.857-1.341-4.925-3.953-5.601-7.035l-54.702-251.003c-0.655-3 0.092-6.154 2.017-8.55 1.925-2.386 4.854-3.789 7.916-3.789h297.636c5.54 0 10.045 4.413 10.179 9.943 0.133 5.919 2.109 145.695-107.868 193.567z" />
<glyph unicode="&#xe922;" glyph-name="resume" data-tags="resume" d="M194.56 878.080v-860.16h634.88v655.36h-184.32c-11.31 0.001-20.479 9.17-20.48 20.48v0 184.32h-430.080zM665.6 878.080v-163.84h163.84l-163.84 163.84zM399.36 775.68c28.277 0 51.2-22.923 51.2-51.2s-22.923-51.2-51.2-51.2c-28.277 0-51.2 22.923-51.2 51.2s22.923 51.2 51.2 51.2zM399.36 632.32c62.209 0 112.64-45.847 112.64-102.4h-225.28c0 56.553 50.431 102.4 112.64 102.4zM283.84 437.76c0.143 0.004 0.311 0.006 0.48 0.006s0.337-0.002 0.505-0.006h-0.025c0.287 0.014 0.622 0.023 0.96 0.023s0.673-0.008 1.007-0.024l-0.047 0.002h450.56c0.086 0.001 0.188 0.002 0.29 0.002 11.312 0 20.482-9.17 20.482-20.482s-9.17-20.482-20.482-20.482c-0.102 0-0.203 0.001-0.305 0.002h-450.545c-0.431-0.032-0.933-0.051-1.44-0.051-11.339 0-20.531 9.192-20.531 20.531 0 10.832 8.389 19.705 19.024 20.476l0.067 0.004zM283.84 325.12c0.143 0.004 0.311 0.006 0.48 0.006s0.337-0.002 0.505-0.006h-0.025c0.287 0.014 0.622 0.023 0.96 0.023s0.673-0.008 1.007-0.024l-0.047 0.002h450.56c0.086 0.001 0.188 0.002 0.29 0.002 11.312 0 20.482-9.17 20.482-20.482s-9.17-20.482-20.482-20.482c-0.102 0-0.203 0.001-0.305 0.002h-450.545c-0.431-0.032-0.933-0.051-1.44-0.051-11.339 0-20.531 9.192-20.531 20.531 0 10.832 8.389 19.705 19.024 20.476l0.067 0.004zM283.84 212.48c0.143 0.004 0.311 0.006 0.48 0.006s0.337-0.002 0.505-0.006h-0.025c0.287 0.014 0.622 0.023 0.96 0.023s0.673-0.008 1.007-0.024l-0.047 0.002h450.56c0.086 0.001 0.188 0.002 0.29 0.002 11.312 0 20.482-9.17 20.482-20.482s-9.17-20.482-20.482-20.482c-0.102 0-0.203 0.001-0.305 0.002h-450.545c-0.431-0.032-0.933-0.051-1.44-0.051-11.339 0-20.531 9.192-20.531 20.531 0 10.832 8.389 19.705 19.024 20.476l0.067 0.004z" />
<glyph unicode="&#xe923;" glyph-name="worker" data-tags="worker" d="M763.73 227.523v-138.168c25.682-11.274 43.141-37.038 43.141-65.935v-36.219c98.089 26.9 98.12 72.868 98.12 125.061 0 46.305-54.938 87.716-141.261 115.261zM260.27 89.354v138.168c-86.313-27.525-141.261-68.925-141.261-115.261 0-52.193 0.031-98.161 98.12-125.061v36.209c0 28.897 17.459 54.671 43.141 65.946zM677.386 95.355v153.088c-50.289 8.919-106.291 13.937-165.396 13.937-59.095 0-115.108-5.018-165.386-13.937v-153.078h330.783zM288.829 542.73c0.010-123.064 100.116-223.181 223.16-223.181 123.085 0 223.16 100.116 223.16 223.181 0 6.81-0.348 13.537-0.963 20.204h-444.396c-0.604-6.666-0.963-13.394-0.963-20.204zM779.919 631.777c0 18.299-14.828 33.106-33.126 33.106h-9.011c0 88.023-50.391 164.188-123.853 201.441l-18.708-106.086c-1.485-8.407-8.776-14.305-17.039-14.305-1.004 0-1.997 0.082-3.011 0.256-9.421 1.69-15.698 10.65-14.019 20.070l21.34 121.17c-7.987 12.831-22.211 21.371-38.472 21.371h-64.082c-16.23 0-30.433-8.54-38.441-21.361l21.35-121.18c1.679-9.421-4.608-18.381-14.019-20.070-1.014-0.174-2.028-0.256-3.021-0.256-8.253 0-15.575 5.908-17.039 14.305l-18.719 106.076c-73.462-37.243-123.832-113.408-123.832-201.431h-9.021c-18.299 0-33.116-14.807-33.116-33.106s14.817-33.126 33.116-33.126h469.596c18.299 0 33.126 14.828 33.126 33.126zM333.384 26.552c0-19.726-15.991-35.717-35.717-35.717s-35.717 15.991-35.717 35.717c0 19.726 15.991 35.717 35.717 35.717s35.717-15.991 35.717-35.717zM756.101 26.552c0-19.726-15.991-35.717-35.717-35.717s-35.717 15.991-35.717 35.717c0 19.726 15.991 35.717 35.717 35.717s35.717-15.991 35.717-35.717z" />
<glyph unicode="&#xe924;" glyph-name="arrow-up" data-tags="arrow-up" horiz-adv-x="1757" d="M-1.053 82.711c0-14.026 6.827-29.913 17.501-40.588l88.126-88.002c10.674-10.674 26.81-17.625 40.712-17.625s29.789 6.951 40.339 17.625l692.72 692.348 692.348-692.348c10.302-10.674 26.438-17.625 40.339-17.625 16.136 0 30.037 6.951 40.464 17.625l88.126 88.002c10.674 10.674 17.749 26.562 17.749 40.588 0 14.15-7.075 29.913-17.749 40.464l-820.938 821.186c-10.674 10.426-26.438 17.501-40.339 17.501-14.274 0-30.037-7.075-40.712-17.501l-821.186-821.186c-10.674-10.55-17.501-26.314-17.501-40.464z" />
<glyph unicode="&#xe925;" glyph-name="document" data-tags="document" horiz-adv-x="878" d="M838.656 742.336l-178.24 178.24c-21.12 21.12-63.424 38.848-93.696 38.848h-511.872c-30.272 0-54.848-24.576-54.848-54.848v-914.048c0-30.272 24.576-54.848 54.848-54.848h767.808c30.272 0 54.848 24.576 54.848 54.848v658.112c0 30.272-17.728 72.576-38.848 93.696zM585.024 881.728c9.664-3.456 19.392-8.576 23.424-12.544l178.816-178.816c3.968-4.032 9.088-13.76 12.544-23.424h-214.784v214.784zM804.352 8.768h-731.2v877.504h438.72v-237.632c0-30.272 24.576-54.848 54.848-54.848h237.632v-585.024z" />
<glyph unicode="&#xe926;" glyph-name="hours" data-tags="hours" horiz-adv-x="3915" d="M1099.481 78.846h-1099.481v98.207c0 99.018 4.329 295.973 475.612 396.885 41.393 8.657 87.385 18.667 123.367 25.16 93.607 18.397 104.429 30.571 104.429 52.215v0c0 25.16-20.832 45.722-148.257 45.722-166.924 0-170.171-71.964-172.335-98.207h-370.913v6.493c0 113.627 42.204 300.572 507.266 300.572h48.968c439.63 0 520.252-115.521 520.252-254.039v-6.493c0-145.010-108.217-199.66-429.62-247.546-41.393-5.411-87.385-14.068-122.285-19.75-182.075-29.489-220.221-56.814-220.221-81.162h455.863v84.95h327.355zM1696.837 894.529h410.141v-442.877h174.499v-232.395h-174.499v-140.682h-368.748v140.682h-605.202v199.66zM1738.23 678.096l-270.542-226.984h270.542zM2484.384-64h-255.391l359.009 1024h257.285zM3915.008 890.2v-193.167c-63.302-68.9-124.753-143.223-182.236-220.666l-5.25-7.401c-108.217-151.503-133.106-255.121-133.106-387.145v-3.246h-405.812v90.631c0 103.617 34.9 183.157 189.379 316.263 103.617 88.467 206.153 162.325 208.317 179.91h-387.686v-146.092h-345.752v370.913z" />
<glyph unicode="&#xe927;" glyph-name="pliers" data-tags="pliers" horiz-adv-x="1190" d="M704.253 457.625c11.436 92.561 16.88 169.383 16.88 169.383l67.148 1.869 369.141 320.889-34.376 8.216c0 0-195.287-69.389-270.937-104.823s-139.329-75.007-139.329-75.007l-72.899-109.48c0 0-26.201-317.991-96.553-453.457-50.628-97.486-293.453-252.021-291.090-253.040s51.217-31.192 86.29-21.635c35.073 9.557 238.62 125.409 298.217 222.227 20.264 32.92 36.649 99.213 49.398 171.642l17.056-6.547c22.191-8.518 46.773 2.546 55.234 24.587l13.162 34.288c8.476 22.080-2.551 46.768-24.595 55.23l-35.217 13.518c-2.489 0.955-5.008 1.664-7.531 2.139v0zM1174.255 930.4l-369.141-320.889-11.196-66.234-57.197 4.577-9.89-80.23 97.038-10.608 118.56 56.953c0 0 48.050 57.551 93.667 127.534s141.51 253.712 141.51 253.712l-3.352 35.185zM593.24 699.293l27.212-31.304-12.206-113.746c0 0-221.403-37.973-349.923-140.822s-196.283-310.778-196.283-310.778c0 0-23.713 22.729-34.885 40.131-10.41 16.216-15.385 61.258-15.385 61.258s16.372 178.634 181.818 308.213c165.446 129.58 294.634 105.96 294.634 105.96l9.173 53.836 95.846 27.251z" />
<glyph unicode="&#xe928;" glyph-name="quality" data-tags="quality" d="M111.473 40.776h134.441v502.63h-223.119zM1001.196 465.469c0 53.75-42.988 61.87-42.988 61.87h-279.552c0 0-18.852 24.136-2.724 75.233 16.118 51.087 18.852 126.321 5.386 158.577-13.404 32.246-37.632 91.402-99.461 94.075-36.26-5.55-48.384-34.918-48.384-34.918v-118.323c0 0-115.538-209.613-131.656-212.275-16.169-2.724-80.527-10.793-80.527-10.793v-370.944h18.698c0 0 137.062-67.185 163.912-67.185 26.911 0 338.719 0 338.719 0s48.374 10.783 48.374 64.502c0 34.918-29.573 56.484-29.573 56.484s72.612 5.356 72.612 67.164c0 25.385-34.99 48.384-34.99 48.384s67.226 13.455 64.563 69.878c-5.396 34.939-24.228 53.78-24.228 53.78s61.819 10.762 61.819 64.492z" />
<glyph unicode="&#xe929;" glyph-name="service2" data-tags="service" d="M543.744 274.208l327.094-327.038c0 0 39.869-39.897 110.874 31.090 71.015 70.996 31.109 110.893 31.109 110.893l-297.368 297.368c-51.524-13.953-91.991-29.39-106.494-43.931l-65.215-68.381zM468.9 561.303l-207.273 207.236-39.458 92.028-151.967 99.434-70.202-70.221 99.406-151.967 92.019-39.477 205.797-205.788 45.472 36.581c9.433 9.647 18.043 20.555 26.206 32.173zM1021.18 781.837l-196.748-85.248-38.188 92.392 4.193 46.35 164.369 71.669c0 0-92.728 58.977-189.65 37.926-96.922-21.088-118.009-25.262-139.051-88.554-21.050-63.161-50.562-261.235-151.714-362.387l-437.866-352.132c0 0-75.946-85.528 0.075-161.53 76.021-76.021 161.511-0.028 161.511-0.028l377.432 395.728c63.217 63.217 341.327 96.94 341.327 96.94l-46.332 112.144c107.727 52.794 150.64 196.729 150.64 196.729zM164.369 18.269c-24.795-24.823-65.066-24.823-89.908 0-24.795 24.833-24.795 65.047 0.037 89.871 24.842 24.851 65.075 24.851 89.861 0.019 24.842-24.823 24.842-65.047 0.009-89.889z" />
<glyph unicode="&#xe92a;" glyph-name="time" data-tags="time" d="M512 913.92c-257.024 0-465.92-208.896-465.92-465.92s208.896-465.92 465.92-465.92 465.92 208.896 465.92 465.92-208.896 465.92-465.92 465.92zM512 84.48c-200.704 0-363.52 162.816-363.52 363.52s162.816 363.52 363.52 363.52 363.52-162.816 363.52-363.52-162.816-363.52-363.52-363.52zM552.96 734.72h-102.4v-291.84l26.624-45.056 189.44-102.4 49.152 90.112-162.816 88.064z" />
<glyph unicode="&#xe92b;" glyph-name="pdf" data-tags="pdf" horiz-adv-x="811" d="M651.307 291.968c-12.331-3.712-30.507-4.139-50.005-1.28-20.907 3.072-42.155 9.472-63.147 19.029 37.376 5.461 66.304 3.797 91.093-5.077 5.931-2.133 15.573-7.723 22.059-12.672zM442.88 326.528c-1.451-0.427-3.029-0.853-4.48-1.237-10.069-2.773-19.797-5.461-29.227-7.851l-12.757-3.285c-25.557-6.485-51.669-13.184-77.525-21.077 9.856 23.851 18.944 47.957 27.904 71.595 6.613 17.451 13.355 35.285 20.309 52.864 3.541-5.888 7.211-11.776 11.093-17.664 17.493-26.965 39.467-51.84 64.683-73.344zM377.899 595.669c1.621-29.483-4.651-57.771-13.867-84.949-11.392 33.579-16.683 70.699-2.475 100.651 3.669 7.68 6.613 11.776 8.576 13.952 2.987-4.693 6.912-15.104 7.765-29.653zM244.395 222.592c-6.315-11.563-12.885-22.357-19.584-32.555-16.085-24.533-42.496-50.816-56.107-50.816-1.323 0-2.944 0.213-5.248 2.731-1.579 1.621-1.792 2.731-1.707 4.352 0.427 9.003 12.245 25.088 29.44 39.979 15.616 13.525 33.195 25.557 53.205 36.309zM694.528 290.688c-2.133 30.037-52.224 49.323-52.736 49.493-19.371 6.955-40.491 10.325-64.427 10.325-25.643 0-53.248-3.755-88.704-12.117-31.573 22.571-58.88 50.859-79.232 82.176-9.003 13.781-17.109 27.605-24.149 41.088 17.28 41.515 32.768 86.187 29.952 136.149-2.261 40.107-20.224 67.029-44.587 67.029-16.683 0-31.104-12.459-42.795-37.163-20.907-43.947-15.445-100.181 16.256-167.339-11.435-27.051-21.973-55.083-32.256-82.219-12.8-33.792-25.984-68.565-40.747-101.717-41.643-16.64-75.776-36.736-104.277-61.483-18.688-16.171-41.131-40.875-42.453-66.688-0.64-12.16 3.499-23.296 11.861-32.213 8.96-9.515 20.139-14.464 32.469-14.507 40.704 0 79.829 56.405 87.253 67.712 14.933 22.741 28.928 48.085 42.667 77.355 34.475 12.587 71.296 21.931 106.923 31.061l12.843 3.285c9.557 2.432 19.584 5.163 29.781 7.979 10.837 2.987 22.016 6.016 33.28 8.917 36.651-23.509 76.075-38.784 114.432-44.416 32.384-4.779 61.099-2.005 80.555 8.192 17.536 9.216 18.517 23.424 18.091 29.099zM773.333 32.213c0-55.040-48.085-58.453-57.813-58.539h-620.544c-54.357 0-57.557 48.811-57.728 58.539v831.616c0 55.125 48.256 58.453 57.728 58.581l419.456-0.256v-164.992c0-33.152 19.755-95.829 94.976-95.829h162.517l1.408-1.408v-627.712zM734.805 698.965h-125.397c-54.357 0-57.685 48.597-57.728 58.197v127.275l183.125-185.472zM810.539 32.213v643.243l-258.859 262.272v1.195h-1.195l-20.779 21.077h-434.731c-32.811 0-94.976-20.096-94.976-96.171v-831.616c0-33.28 19.883-96.213 94.976-96.213h620.587c32.811 0.043 94.976 20.139 94.976 96.213z" />
<glyph unicode="&#xe92c;" glyph-name="people" data-tags="people" horiz-adv-x="1797" d="M1268.889 429.589v157.844c-20.082 12.845-32.86 34.867-32.86 60.565v163.343c0 80.756 65.728 146.829 146.057 146.829h36.512c80.328 0 146.057-66.073 146.057-146.829v-163.343c0-25.699-12.778-47.72-32.86-60.565v-157.844c0-3.669 1.822-5.507 3.652-7.338 21.904-11.015 131.448-66.073 231.859-148.659 18.26-14.684 29.208-36.714 29.208-60.574v-111.954h-357.833c-7.304 38.544-27.386 71.58-56.594 97.27-85.81 71.58-177.095 126.638-233.689 157.844 58.424 36.705 104.062 60.565 118.67 67.903 0 0 1.822 3.677 1.822 5.507zM416.291 198.334c85.81 71.58 177.095 126.638 233.689 157.844-58.416 36.705-104.062 60.565-118.67 67.903-1.822 1.839-3.652 3.677-3.652 7.346v157.836c20.090 12.854 32.868 34.875 32.868 60.574v163.343c0 80.756-65.728 146.829-146.057 146.829h-36.512c-80.337 0-146.057-66.073-146.057-146.829v-163.343c0-25.699 12.778-47.72 32.86-60.574v-157.836c0-3.669-1.822-5.507-3.652-7.346-21.904-11.007-131.448-66.073-231.859-148.659-18.26-14.684-29.216-36.705-29.216-60.565v-111.962h357.842c7.296 36.714 27.386 69.75 58.416 95.44zM741.265 515.852v-187.203c0-3.677-1.822-5.507-5.474-7.346-25.564-12.845-155.183-78.918-275.683-178.027-21.904-18.353-34.682-44.051-34.682-73.419v-133.976h408.954l40.164 185.373c-82.158 113.793 5.474 119.292 21.904 119.292v0 0c14.608 0 102.24-5.499 21.912-119.292l40.164-185.373h408.954v133.976c0 27.537-12.778 55.066-34.69 73.419-120.492 99.109-250.119 165.182-275.675 178.027-3.652 1.839-5.474 3.669-5.474 7.346v187.203c23.734 16.522 38.334 42.213 38.334 73.41v194.549c0 97.27-78.506 176.197-175.265 176.197h-40.164c-96.767 0-175.265-78.926-175.265-176.197v-194.549c3.652-31.198 18.252-56.888 41.986-73.41z" />
<glyph unicode="&#xe92d;" glyph-name="people1" data-tags="people1" horiz-adv-x="1227" d="M732.56 427.531c-2.549-3.829-6.379-6.384-11.483-6.384-2.555 0-5.109 1.275-7.659 2.555l-89.349 57.461-89.344-57.461c-2.549-1.28-5.104-2.555-7.659-2.555-3.829 0-8.933 2.555-11.488 6.384-3.824 6.384-2.549 14.048 3.835 17.877l90.619 58.736v107.259c0 7.664 6.384 12.768 12.763 12.768 6.384 0 12.763-6.384 12.763-12.768v-107.259l90.624-58.736c8.933-3.829 10.208-11.493 6.379-17.877zM968.688 53.403c3.829 0 8.933 2.555 11.488 6.384 3.829 6.384 2.555 14.048-3.829 17.877l-90.619 58.736v107.259c0 7.664-6.384 12.768-12.768 12.768-7.659 0-12.763-6.384-12.763-12.768v-107.259l-90.619-58.736c-6.384-3.829-7.659-12.768-3.829-17.877 2.549-3.829 6.379-6.384 11.488-6.384 2.549 0 5.104 1.28 7.653 2.555l89.349 57.461 89.344-57.461c0-2.555 2.555-2.555 5.104-2.555zM289.664 54.683l89.349 57.461 89.344-57.461c2.549-1.28 5.104-2.555 7.659-2.555 3.829 0 8.933 2.555 11.488 6.384 3.829 6.384 2.549 14.043-3.829 17.877l-90.624 58.736v108.533c0 7.664-6.384 12.768-12.763 12.768-7.659 0-12.763-6.384-12.763-12.768v-107.259l-91.899-58.736c-6.384-3.829-7.659-12.768-3.829-17.877 2.555-3.829 6.384-6.384 11.488-6.384 1.275 0 3.829 0 6.379 1.28zM580.677 781.232c-7.659-3.835-43.397-21.712-77.861-49.803-6.379-5.104-8.933-12.768-8.933-20.427v-37.035h114.875l11.488 52.357c-22.976 31.92 1.275 33.195 6.379 33.195v0 0c3.829 0 29.355-1.275 6.384-33.195l11.488-52.357h114.869v37.035c0 7.659-3.829 15.323-8.933 20.427-33.184 28.091-70.203 45.968-77.856 49.803-1.28 0-1.28 1.275-1.28 2.549 0 8.939 0 52.352 0 52.352 6.384 3.835 11.488 11.493 11.488 20.432v48.523c0 30.645-24.251 54.907-54.885 54.907v0c-30.629 0-54.88-24.261-54.88-54.907v-48.523c0-8.939 3.829-16.597 11.488-20.432v-52.352c-2.555-1.275-3.829-2.549-3.829-2.549zM1004.427 341.979c0 7.664-3.829 15.323-8.933 20.432-33.184 28.091-70.203 45.968-77.861 49.797-1.275 0-1.275 1.28-1.275 2.555 0 8.939 0 52.352 0 52.352 6.384 3.829 11.488 11.493 11.488 20.432v48.523c0 30.64-24.251 54.901-54.885 54.901v0c-30.629 0-54.88-24.261-54.88-54.901v-48.523c0-8.939 3.829-16.603 11.488-20.432v-52.352c0-1.275 0-1.275-1.28-2.555-7.659-3.829-43.397-21.707-77.856-49.797-6.384-5.109-8.933-12.768-8.933-20.432v-37.029h114.869l11.488 52.352c-22.976 31.925 1.275 33.2 6.384 33.2v0 0c3.829 0 29.355-1.275 6.379-33.2l11.488-52.352h114.875v37.029h-2.555zM333.061 412.208c-7.659-3.829-43.397-21.707-77.856-49.797-6.384-5.109-8.933-12.768-8.933-20.432v-37.029h114.869l11.488 52.352c-22.976 31.925 1.275 33.2 6.384 33.2v0 0c3.829 0 29.355-1.275 6.379-33.2l11.488-52.352h114.875v37.029c0 7.664-3.829 15.323-8.939 20.432-33.184 28.091-70.197 45.968-77.856 49.797-1.275 0-1.275 1.28-1.275 2.555 0 8.939 0 52.352 0 52.352 6.379 3.829 11.488 11.493 11.488 20.432v48.523c0 30.64-24.251 54.901-54.885 54.901v0c-30.635 0-54.885-24.261-54.885-54.901v-48.523c0-8.939 3.829-16.603 11.488-20.432v-52.352c-2.555-1.275-2.555-2.555-3.829-2.555zM1241.829-6.608c-33.184 28.091-70.197 45.968-77.856 49.797-1.28 0-1.28 1.28-1.28 2.555 0 8.939 0 52.352 0 52.352 6.384 3.829 11.488 11.493 11.488 20.432v48.517c0 30.645-24.251 54.907-54.88 54.907v0c-30.635 0-54.885-24.261-54.885-54.907v-48.517c0-8.939 3.829-16.603 11.488-20.432v-52.352c0-1.275 0-1.275-1.275-2.555-7.659-3.829-43.397-21.707-77.861-49.797-6.379-5.109-8.933-12.773-8.933-20.432v-37.029h114.875l11.483 52.352c-22.971 31.925 1.28 33.2 6.384 33.2v0 0c3.829 0 29.355-1.275 6.379-33.2l11.488-52.352h114.875v37.029c-1.275 7.659-5.104 15.323-11.488 20.432zM671.296 43.189c-1.275 0-1.275 1.28-1.275 2.555 0 8.939 0 52.352 0 52.352 6.384 3.829 11.488 11.493 11.488 20.432v48.517c0 30.645-24.251 54.907-54.885 54.907v0c-30.629 0-54.885-24.261-54.885-54.907v-48.517c0-8.939 3.829-16.603 11.488-20.432v-52.352c0-1.275 0-1.275-1.275-2.555-7.659-3.829-43.397-21.707-77.856-49.797-6.384-5.109-8.939-12.773-8.939-20.432v-37.029h114.875l11.488 52.352c-22.976 31.925 1.275 33.2 6.379 33.2v0 0c3.829 0 29.36-1.275 6.384-33.2l11.488-52.352h114.869v37.029c0 7.659-3.829 15.323-8.933 20.432-37.013 28.091-72.752 45.968-80.411 49.797zM125.013-11.717c-22.971 31.925 1.28 33.2 6.384 33.2v0 0c3.829 0 29.355-1.275 6.384-33.2l11.483-52.352h114.875v37.029c0 7.659-3.829 15.323-8.933 20.432-33.184 28.091-70.203 45.968-77.861 49.797-1.275 0-1.275 1.28-1.275 2.555 0 8.939 0 52.352 0 52.352 6.384 3.829 11.488 11.493 11.488 20.432v48.517c0 30.645-24.251 54.907-54.885 54.907v0c-31.909 0-56.16-24.261-56.16-54.907v-48.517c0-8.939 3.829-16.603 11.488-20.432v-52.352c0-1.275 0-1.275-1.275-2.555-7.659-3.829-43.397-21.707-77.856-49.797-6.384-5.109-8.939-12.773-8.939-20.432v-37.029h114.875l10.208 52.352z" />
<glyph unicode="&#xe92e;" glyph-name="people2" data-tags="people2" horiz-adv-x="1259" d="M683.094 754.944c-1.282 0-1.282 1.282-1.282 2.563v26.914c3.679 7.444 6.379 16.085 7.639 25.187l0.051 0.446c1.282 0 1.282-1.282 2.563-1.282 3.845 0 8.971 5.126 14.098 23.069s2.563 25.632-2.563 26.914c15.379 71.77-19.224 74.333-19.224 74.333-4.645 7.677-11.173 13.795-18.959 17.818l-0.265 0.124c-8.593 5.639-19.125 8.994-30.439 8.994-0.563 0-1.124-0.008-1.683-0.025l0.082 0.002h-6.408c-5.573-0.247-10.832-1.167-15.833-2.681l0.454 0.118c-6.361-2.401-11.862-5.425-16.85-9.105l0.19 0.134c-6.788-4.178-12.668-8.836-17.944-14.1l0.002 0.002c-8.612-9.177-15.222-20.341-19.064-32.722l-0.16-0.599c-1.138-4.847-1.79-10.413-1.79-16.13 0-7.501 1.123-14.74 3.209-21.557l-0.137 0.521h-1.282c-6.408 0-11.534-5.126-5.126-26.914 5.126-17.942 10.253-23.069 12.816-23.069 1.807-11.971 5.397-22.757 10.525-32.615l-0.272 0.575v-23.069c0-1.282 0-2.563-1.282-2.563-35.173-16.968-65.486-36.624-92.993-59.535l0.718 0.581c-7.058-5.82-11.526-14.563-11.534-24.349v-211.465c0.275-25.844 9.413-49.501 24.512-68.131l-0.161 0.206 33.322-39.73 32.040-393.452c1.014-13.465 12.040-24.046 25.602-24.35l0.030-0.001h87.149c0.306-0.014 0.665-0.021 1.026-0.021 13.507 0 24.473 10.883 24.606 24.359v0.013l30.758 390.889 33.322 39.73c15.161 17.943 24.376 41.336 24.376 66.881 0 0.818-0.009 1.633-0.028 2.446l0.002-0.121v211.464c-0.009 9.788-4.476 18.53-11.481 24.307l-0.054 0.043c-26.865 21.006-57.076 40.571-88.972 57.368l-3.304 1.586zM629.267 517.847l-24.35 28.195 16.661 137.131c-32.040 44.856 2.563 47.419 8.971 47.419v0c6.408 0 41.011-2.563 8.971-47.419l16.661-137.131zM1248.28 608.841c6.124-4.832 10.069-12.19 10.252-20.476l0.001-0.030v-67.925h-266.573v67.925c0.184 8.315 4.129 15.673 10.196 20.463l0.057 0.043c22.731 18.745 48.396 35.393 75.861 48.949l2.317 1.034c1.282 0 1.282 1.282 1.282 2.563v19.224c-4.466 7.762-7.631 16.852-8.929 26.533l-0.042 0.381c-2.563 0-6.408 3.845-11.534 19.224-5.126 19.224 0 23.069 5.126 23.069h1.282c-1.931 5.181-3.049 11.168-3.049 17.415 0 4.746 0.645 9.342 1.852 13.704l-0.085-0.36c2.937 10.977 8.268 20.462 15.423 28.243l-0.043-0.048c3.743 4.83 8.456 8.723 13.866 11.429l0.232 0.105c3.872 2.466 8.491 5.027 13.261 7.326l0.837 0.363c3.78 1.389 8.15 2.308 12.699 2.558l0.117 0.005h5.126c0.768 0.050 1.664 0.078 2.567 0.078 9.13 0 17.58-2.91 24.472-7.854l-0.126 0.086c6.4-3.275 11.611-8.075 15.285-13.937l0.094-0.161s29.477-2.563 16.661-62.798c3.845-1.282 6.408-6.408 2.563-23.069s-8.971-19.224-11.534-19.224-1.282 0-2.563 1.282c-2.052-8.79-4.253-16.071-6.848-23.161l0.44 1.374v-23.069c0-1.282 0-1.282 1.282-2.563 29.906-13.231 55.672-29.552 78.63-49.076l-0.452 0.375zM1248.28 203.855c6.124-4.832 10.069-12.19 10.252-20.476l0.001-0.030v-67.925h-266.573v67.925c0.184 8.315 4.129 15.673 10.196 20.463l0.057 0.043c22.731 18.745 48.396 35.393 75.861 48.949l2.317 1.034c1.282 0 1.282 1.282 1.282 2.563v19.224c-4.466 7.762-7.631 16.852-8.929 26.533l-0.042 0.381c-2.563 0-6.408 3.845-11.534 19.224-5.126 19.224 0 23.069 5.126 23.069h1.282c-1.931 5.181-3.049 11.168-3.049 17.415 0 4.746 0.645 9.342 1.852 13.704l-0.085-0.36c2.937 10.977 8.268 20.462 15.423 28.243l-0.043-0.048c3.743 4.83 8.456 8.723 13.866 11.429l0.232 0.105c3.872 2.466 8.491 5.027 13.261 7.326l0.837 0.363c3.78 1.389 8.15 2.308 12.699 2.558l0.117 0.005h5.126c0.768 0.050 1.664 0.078 2.567 0.078 9.13 0 17.58-2.91 24.472-7.854l-0.126 0.086c6.4-3.275 11.611-8.075 15.285-13.937l0.094-0.161s29.477-2.563 16.661-62.798c3.845-1.282 6.408-6.408 2.563-23.069s-8.971-19.224-11.534-19.224-1.282 0-2.563 1.282c-2.052-8.79-4.253-16.071-6.848-23.161l0.44 1.374v-23.069c0-1.282 0-1.282 1.282-2.563 30.039-12.596 55.881-28.983 78.477-48.96l-0.299 0.26zM902.248 453.767h-65.362v42.293h65.362v190.959c0 0.038 0 0.083 0 0.129 0 11.962 9.697 21.659 21.659 21.659 0.045 0 0.090 0 0.136 0h69.2v-42.293h-47.419v-380.636h47.419v-43.574h-69.207c-0.038 0-0.083 0-0.129 0-11.962 0-21.659 9.697-21.659 21.659 0 0.045 0 0.090 0 0.136v-0.007zM266.573 519.129h-266.573v69.207c0.184 8.315 4.129 15.673 10.196 20.463l0.057 0.043c22.731 18.745 48.396 35.393 75.861 48.949l2.317 1.034c1.282 0 1.282 1.282 1.282 2.563v19.224c-4.466 7.762-7.631 16.852-8.929 26.533l-0.042 0.381c-2.563 0-6.408 3.845-11.534 19.224-5.126 19.224 0 23.069 5.126 23.069h1.282c-1.931 5.181-3.049 11.168-3.049 17.415 0 4.746 0.645 9.342 1.852 13.704l-0.085-0.36c2.937 10.977 8.268 20.462 15.423 28.243l-0.043-0.048c3.743 4.83 8.456 8.723 13.866 11.429l0.232 0.105c3.872 2.466 8.491 5.027 13.261 7.326l0.837 0.363c3.78 1.389 8.15 2.308 12.699 2.558l0.117 0.005h5.126c0.768 0.050 1.664 0.078 2.567 0.078 9.13 0 17.58-2.91 24.472-7.854l-0.126 0.086c6.4-3.275 11.611-8.075 15.285-13.937l0.094-0.161s29.477-2.563 16.661-62.798c3.845-1.282 6.408-6.408 2.563-23.069s-7.69-19.224-11.534-19.224c-1.282 0-1.282 0-2.563 1.282-2.052-8.79-4.253-16.071-6.848-23.161l0.44 1.374v-23.069c0-1.282 0-1.282 1.282-2.563 29.771-15 55.404-31.62 79.022-50.64l-0.845 0.658c6.124-4.832 10.069-12.19 10.252-20.476l0.001-0.030v-67.925zM266.573 115.424h-266.573v67.925c0.184 8.315 4.129 15.673 10.196 20.463l0.057 0.043c22.731 18.745 48.396 35.393 75.861 48.949l2.317 1.034c1.282 0 1.282 1.282 1.282 2.563v19.224c-4.466 7.762-7.631 16.852-8.929 26.533l-0.042 0.381c-2.563 0-6.408 3.845-11.534 19.224-5.126 19.224 0 23.069 5.126 23.069h1.282c-1.931 5.181-3.049 11.168-3.049 17.415 0 4.746 0.645 9.342 1.852 13.704l-0.085-0.36c2.937 10.977 8.268 20.462 15.423 28.243l-0.043-0.048c3.743 4.83 8.456 8.723 13.866 11.429l0.232 0.105c3.872 2.466 8.491 5.027 13.261 7.326l0.837 0.363c3.78 1.389 8.15 2.308 12.699 2.558l0.117 0.005h5.126c0.768 0.050 1.664 0.078 2.567 0.078 9.13 0 17.58-2.91 24.472-7.854l-0.126 0.086c6.4-3.275 11.611-8.075 15.285-13.937l0.094-0.161s29.477-2.563 16.661-62.798c3.845-1.282 6.408-6.408 2.563-23.069s-8.971-19.224-11.534-19.224-1.282 0-2.563 1.282c-2.052-8.79-4.253-16.071-6.848-23.161l0.44 1.374v-23.069c0-1.282 0-1.282 1.282-2.563 29.771-15 55.404-31.62 79.022-50.64l-0.845 0.658c6.124-4.832 10.069-12.19 10.252-20.476l0.001-0.030v-66.643zM356.285 496.060h65.362v-42.293h-65.362v-190.959c0-0.038 0-0.083 0-0.129 0-11.962-9.697-21.659-21.659-21.659-0.045 0-0.090 0-0.136 0h-69.2v42.293h47.419v383.199h-47.419v42.293h69.207c0.038 0 0.083 0 0.129 0 11.962 0 21.659-9.697 21.659-21.659 0-0.045 0-0.090 0-0.136v0.007z" />
<glyph unicode="&#xe92f;" glyph-name="logo2" data-tags="logo2" horiz-adv-x="9215" d="M2393.15 72.288h-51.080v-74.055c0.158-1.048 0.248-2.257 0.248-3.487s-0.090-2.439-0.264-3.621l0.016 0.134c-0.531-2.75-1.843-5.132-3.692-6.974v0c-1.726-1.804-3.963-3.107-6.478-3.676l-0.086-0.016c-1.047-0.135-2.258-0.213-3.487-0.213s-2.44 0.077-3.629 0.227l0.141-0.015h-66.26c-0.078 0-0.17 0-0.263 0-7.19 0-14.171 0.898-20.836 2.588l0.584-0.126c-6.775 1.67-12.692 4.653-17.733 8.686l0.091-0.070c-5.728 4.705-10.361 10.519-13.61 17.135l-0.134 0.302c-1.712 3.438-3.317 7.52-4.576 11.751l-0.142 0.557c-1.73 5.717-3.236 12.656-4.222 19.761l-0.086 0.753c-1.176 9.642-1.848 20.806-1.848 32.126 0 0.317 0.001 0.633 0.002 0.95v-0.049c-0.001 0.293-0.002 0.64-0.002 0.986 0 11.075 0.671 21.992 1.976 32.715l-0.128-1.289c0.979 7.757 2.489 14.701 4.543 21.406l-0.235-0.892c1.43 4.676 3.101 8.685 5.109 12.489l-0.186-0.386c5.274 9.481 13.153 16.964 22.67 21.61l0.306 0.135c10.131 4.817 22.014 7.631 34.555 7.631 0.906 0 1.808-0.015 2.706-0.044l-0.131 0.003h120.622v41.028h-134.981c-0.408 0.004-0.891 0.007-1.374 0.007-12.408 0-24.448-1.574-35.932-4.532l0.996 0.218c-11.117-2.714-20.903-6.948-29.738-12.547l0.403 0.239c-9.541-6.249-17.475-14.118-23.609-23.293l-0.188-0.298c-5.564-8.613-10.119-18.566-13.142-29.164l-0.192-0.786c-2.681-9.599-4.714-20.919-5.697-32.538l-0.047-0.694c-1.026-11.488-1.231-22.77-1.231-34.053s0-19.488 0-29.745c0.713-11.238 2.319-21.69 4.768-31.814l-0.255 1.248c2.48-10.788 6.15-20.301 10.962-29.102l-0.294 0.588c5.105-9.399 11.621-17.355 19.367-23.901l0.121-0.1c4.446-3.708 9.416-7.107 14.695-10.012l0.485-0.245c5.841-3.029 12.659-5.691 19.776-7.625l0.738-0.171c8.102-1.996 17.427-3.187 27.015-3.282h115.556c1.321-0.119 2.858-0.187 4.41-0.187s3.089 0.068 4.607 0.201l-0.197-0.014c3.604 0.618 6.776 1.473 9.824 2.585l-0.388-0.124c3.14 1.233 5.851 2.823 8.266 4.765l-0.061-0.047c2.996 2.587 5.366 5.813 6.912 9.473l0.063 0.168c1.961 4.624 3.1 10.002 3.1 15.646 0 0.486-0.008 0.969-0.025 1.451l0.002-0.070v99.697zM2458.999-60.847h51.285v211.293c-0.065 0.798-0.102 1.728-0.102 2.667s0.037 1.869 0.109 2.788l-0.008-0.122c0.284 1.841 0.786 3.497 1.485 5.045l-0.049-0.121c0.948 1.892 2.264 3.471 3.865 4.695l0.032 0.024c1.732 1.683 3.87 2.959 6.252 3.665l0.107 0.027c1.077 0.128 2.325 0.201 3.59 0.201s2.513-0.073 3.739-0.215l-0.149 0.014h92.107c3.74-0.227 7.236-0.96 10.522-2.134l-0.265 0.083c3.615-1.253 6.704-3.218 9.231-5.744v0c3.285-3.52 5.714-7.881 6.932-12.723l0.043-0.201c1.719-6.586 2.707-14.147 2.707-21.938 0-0.942-0.014-1.881-0.043-2.816l0.003 0.137c0-2.462 0-5.334 0-8.411s0-6.77 0-10.257c-0.459-3.941-1.107-7.425-1.968-10.824l0.122 0.567c-0.698-3.028-1.83-5.701-3.346-8.108l0.063 0.108c-2.14-3.317-4.966-6.012-8.294-7.938l-0.116-0.062c-2.849-1.533-6.159-2.679-9.661-3.257l-0.186-0.025c-1.445-0.142-3.123-0.223-4.821-0.223s-3.376 0.081-5.032 0.239l0.211-0.016h-51.080c-0.436 0.027-0.945 0.042-1.458 0.042-5.899 0-11.325-2.024-15.622-5.416l0.053 0.041c-3.655-3.177-5.952-7.834-5.952-13.027 0-0.108 0.001-0.216 0.003-0.323v0.016-6.154c0.074-3.004 0.824-5.817 2.102-8.314l-0.051 0.109c1.44-3.051 3.082-5.678 4.989-8.086l-0.065 0.086c1.956-2.479 3.903-4.685 5.961-6.782l-0.012 0.012 89.030-88.21h62.567l-102.569 95.8v1.436h35.079c0.514-0.014 1.12-0.022 1.727-0.022 8.521 0 16.67 1.589 24.169 4.486l-0.458-0.156c6.307 2.397 11.703 5.881 16.217 10.268l-0.011-0.011c3.635 3.797 6.774 8.114 9.284 12.817l0.152 0.312c3.255 5.903 5.932 12.741 7.678 19.942l0.117 0.572c1.568 5.945 2.733 12.946 3.259 20.126l0.023 0.388c0 6.77 0 13.539 0 20.514s0 13.334 0 20.514c-0.551 7.529-1.863 14.518-3.871 21.207l0.179-0.693c-2.244 7.346-5.389 13.746-9.382 19.514l0.151-0.231c-3.655 5.418-8.004 10.028-12.99 13.847l-0.139 0.102c-4.229 3.099-9.133 5.613-14.411 7.287l-0.359 0.098c-4.474 1.465-9.7 2.553-15.095 3.055l-0.29 0.022c-5.128 0-10.052 0-14.77 0h-128.827c-1.626 0.12-3.523 0.188-5.436 0.188s-3.81-0.068-5.688-0.203l0.252 0.014c-4.239-0.667-8.035-1.739-11.63-3.202l0.347 0.125c-4.019-1.864-7.47-4.2-10.488-6.998l0.025 0.023c-3.256-3.128-5.888-6.877-7.71-11.061l-0.086-0.221c-1.452-3.521-2.533-7.61-3.054-11.873l-0.023-0.23c0-4.103 0-8 0-11.898v-225.653zM2902.509 213.834c-8.411 0-17.027 0-26.668 0-10.447-0.453-20.257-1.554-29.853-3.276l1.338 0.199c-10.615-1.944-20.039-4.859-28.947-8.738l0.843 0.327c-9.653-4.298-17.929-9.881-25.066-16.653l0.039 0.036c-6.983-6.729-12.815-14.592-17.211-23.303l-0.226-0.494c-3.923-8.009-7.176-17.331-9.287-27.078l-0.149-0.821c-1.877-8.539-3.266-18.662-3.872-28.996l-0.026-0.544c0-9.847 0-20.514 0-28.925s0-16.411 0-25.847c0.438-10.695 1.614-20.784 3.487-30.626l-0.204 1.291c2.127-11.077 5.322-20.903 9.565-30.147l-0.334 0.812c8.804-18.978 23.893-33.802 42.542-42.047l0.538-0.212c8.14-3.596 17.638-6.515 27.532-8.295l0.777-0.116c8.229-1.591 18.027-2.764 28.002-3.262l0.512-0.020c9.436 0 18.052 0 26.258 0s16.616 0 26.053 0c10.562 0.518 20.432 1.69 30.079 3.493l-1.36-0.211c10.745 1.889 20.315 4.808 29.347 8.733l-0.832-0.322c9.666 4.256 17.948 9.844 25.059 16.646l-0.032-0.030c6.722 6.657 12.295 14.46 16.404 23.094l0.213 0.497c3.591 7.76 6.695 16.868 8.846 26.339l0.18 0.944c1.857 8.472 3.313 18.65 4.061 29.024l0.042 0.721c0 10.052 0 20.514 0 28.514s0 18.462 0 28.309c-0.691 10.979-2.151 21.162-4.349 31.068l0.246-1.323c-2.147 10.698-5.337 20.171-9.553 29.063l0.321-0.753c-4.362 9.217-10.005 17.091-16.81 23.785l-0.011 0.011c-7.092 6.746-15.37 12.331-24.475 16.396l-0.552 0.22c-8.050 3.519-17.472 6.432-27.27 8.28l-0.834 0.131c-8.307 1.516-18.189 2.617-28.242 3.060l-0.477 0.017c-9.436 0-18.257 0-26.258 0zM2815.736 74.955c-0.015 1.057-0.023 2.305-0.023 3.555 0 11.182 0.679 22.205 1.999 33.030l-0.129-1.301c1.175 9.131 3.188 17.378 6.004 25.244l-0.26-0.832c2.289 6.202 5.341 11.566 9.119 16.327l-0.092-0.121c4.995 6.217 11.319 11.159 18.557 14.437l0.316 0.128c6.932 3.069 14.972 5.309 23.39 6.32l0.406 0.040c8.089 0.853 17.476 1.339 26.976 1.339s18.887-0.486 28.136-1.435l-1.16 0.096c8.97-1.042 17.152-3.283 24.773-6.577l-0.566 0.218c7.639-3.372 14.034-8.32 19.004-14.47l0.074-0.095c2.226-2.809 4.27-5.968 6.001-9.315l0.153-0.326c2.056-4.132 3.88-8.976 5.211-14.020l0.122-0.545c1.539-5.751 2.838-12.721 3.632-19.844l0.061-0.67c0.93-7.996 1.461-17.259 1.461-26.647 0-1.233-0.009-2.465-0.027-3.694l0.002 0.186c0.011-0.889 0.018-1.938 0.018-2.989 0-11.824-0.827-23.454-2.425-34.837l0.151 1.312c-1.134-9.015-3.221-17.191-6.193-24.93l0.244 0.723c-2.142-5.722-4.912-10.671-8.308-15.115l0.103 0.14c-5.105-6.379-11.564-11.457-18.96-14.843l-0.323-0.132c-7.012-3.101-15.144-5.282-23.668-6.127l-0.333-0.027c-8.12-0.855-17.542-1.343-27.078-1.343s-18.959 0.488-28.244 1.44l1.165-0.097c-8.788 0.892-16.847 3.070-24.309 6.355l0.513-0.201c-7.572 3.541-13.895 8.616-18.789 14.864l-0.084 0.111c-3.29 4.245-6.058 9.125-8.073 14.378l-0.132 0.392c-2.786 7.005-4.942 15.172-6.093 23.658l-0.061 0.548c-1.446 10.212-2.271 22.008-2.271 33.997 0 0.957 0.005 1.914 0.016 2.869l-0.001-0.146zM3226.013-23.101c-0.108 0-0.236-0.001-0.364-0.001-6.167 0-12.23 0.448-18.157 1.312l0.674-0.081c-7.047 0.731-13.507 2.398-19.541 4.888l0.464-0.169c-12.085 4.817-21.397 14.396-25.749 26.357l-0.099 0.311c-1.716 4.766-2.887 10.285-3.272 16.018l-0.010 0.188c0 5.539 0 10.872 0 15.796v169.034h-51.285v-176.009c0-0.069 0-0.152 0-0.234 0-8.167 0.597-16.195 1.749-24.043l-0.107 0.891c1.255-8.87 3.625-16.888 6.996-24.357l-0.227 0.561c3.964-8.552 9.056-15.875 15.196-22.171l-0.016 0.016c6.444-6.583 13.968-12.075 22.291-16.197l0.479-0.215c7.221-3.509 15.644-6.474 24.436-8.464l0.796-0.152c7.101-1.556 15.662-2.794 24.385-3.449l0.642-0.039c8 0 14.975 0 20.514 0s13.334 0 20.514 0c9.303 0.705 17.791 1.942 26.082 3.713l-1.26-0.226c9.587 2.138 18.010 5.103 25.942 8.924l-0.71-0.308c8.792 4.363 16.312 9.852 22.76 16.4l0.011 0.011c6.117 6.284 11.208 13.606 14.977 21.67l0.204 0.485c3.147 6.89 5.58 14.893 6.905 23.264l0.069 0.532c0.915 6.823 1.437 14.711 1.437 22.721 0 0.234 0 0.468-0.001 0.701v-0.036 176.009h-51.285v-169.24c0-4.513 0-9.642 0-15.18-0.518-6.193-1.681-11.913-3.434-17.369l0.152 0.548c-3.381-10.712-10.733-19.333-20.286-24.304l-0.227-0.108c-4.099-2.107-8.876-3.932-13.868-5.225l-0.492-0.108c-4.199-1.057-9.173-1.858-14.263-2.238l-0.302-0.018c-4.718 0-8.821 0-12.719 0zM3468.693-60.847v96.21h127.186c8.223 0.035 16.12 1.384 23.507 3.846l-0.532-0.154c7.074 2.217 13.216 5.508 18.585 9.735l-0.123-0.093c5.187 4.404 9.451 9.716 12.582 15.713l0.137 0.288c3.028 5.904 5.503 12.757 7.076 19.947l0.104 0.567c1.409 5.876 2.5 12.884 3.048 20.044l0.029 0.47c0.146 2.726 0.229 5.918 0.229 9.129s-0.083 6.403-0.247 9.573l0.018-0.444c0 5.744 0 11.898 0 18.462-0.402 7.072-1.353 13.676-2.821 20.083l0.154-0.8c-1.418 6.896-3.543 13.002-6.355 18.709l0.201-0.451c-2.797 6.071-6.523 11.242-11.058 15.572l-0.020 0.018c-5.008 4.846-11.024 8.685-17.699 11.168l-0.353 0.115c-5.572 2.107-12.041 3.63-18.765 4.283l-0.313 0.025c-6.359 0-11.898 0-16.616 0h-129.032c-1.504 0.117-3.257 0.183-5.026 0.183s-3.522-0.067-5.257-0.197l0.231 0.014c-3.979-0.576-7.572-1.653-10.916-3.179l0.249 0.102c-4.325-1.671-8.017-4.11-11.077-7.179l-0.001-0.001c-2.778-2.724-5.002-6.001-6.495-9.655l-0.069-0.192c-1.312-3.007-2.191-6.495-2.456-10.153l-0.006-0.104c-0.094-1.533-0.148-3.324-0.148-5.128s0.054-3.596 0.16-5.373l-0.012 0.245v-231.397zM3468.693 76.186v77.542c-0.096 1.014-0.15 2.193-0.15 3.385s0.055 2.371 0.162 3.534l-0.011-0.15c0.336 2.363 1.451 4.42 3.072 5.944l0.005 0.005c1.524 1.678 3.573 2.856 5.885 3.273l0.064 0.010h98.467c4.232-0.384 8.132-1.255 11.823-2.566l-0.336 0.104c4.013-1.392 7.443-3.567 10.259-6.361l-0.002 0.002c2.859-2.98 5.047-6.626 6.308-10.681l0.051-0.192c1.295-3.844 2.304-8.36 2.842-13.019l0.030-0.315c0.134-1.933 0.211-4.188 0.211-6.462s-0.077-4.529-0.227-6.765l0.016 0.303c0.13-1.841 0.204-3.989 0.204-6.154s-0.074-4.313-0.22-6.442l0.016 0.288c-0.345-4.958-1.221-9.572-2.577-13.975l0.116 0.436c-1.202-4.429-3.254-8.277-5.987-11.534l0.038 0.046c-2.716-3.072-6.075-5.51-9.873-7.113l-0.179-0.067c-3.419-1.321-7.385-2.265-11.513-2.653l-0.18-0.014h-11.693zM2707.833 719.091c4.718 15.18 8 20.514 11.283 20.514s7.18-3.282 7.18-18.462l-6.359-340.325h182.163v467.101c0 34.463-10.462 98.262-137.443 98.262-48.002 0-115.083-5.539-143.597-92.723l-90.261-271.604c-1.641-5.744-10.462-25.642-16.821-25.642s-15.18 20.514-16.821 25.642l-90.261 271.604c-28.719 86.979-95.8 92.723-143.597 92.723-28.719 0-137.443 0-137.443-98.262v-467.511h181.343l-5.539 340.325c0 5.539 0 18.462 6.359 18.462 3.898 0 8-9.642 11.077-20.514l86.363-270.168c12.924-41.028 28.719-75.286 107.903-75.286s95.184 34.463 107.903 75.286l86.569 270.578zM3299.248 946.18c-84.722 0-184.625-2.462-244.525-57.439s-63.183-153.444-63.183-228.525 2.462-171.701 63.183-228.525 161.444-57.644 244.525-57.644 184.625 2.462 244.525 57.644 63.183 155.085 63.183 228.525-2.462 172.727-63.183 228.525-158.983 57.439-244.525 57.439zM3176.165 660.011c0 46.361 1.026 76.517 20.514 106.262 24.206 36.72 55.182 41.028 102.569 41.028s76.517-4.103 101.339-41.028c20.514-31.181 20.514-57.439 20.514-106.262 0-44.72 0-75.696-20.514-106.262-24.822-36.72-54.362-41.028-101.339-41.028s-77.542 4.103-102.569 41.028c-18.257 27.899-20.514 61.542-20.514 106.262zM3694.961 463.488c-0.004-0.319-0.007-0.695-0.007-1.071 0-23.726 9.824-45.157 25.626-60.448l0.023-0.022c16.352-12.915 37.263-20.716 59.996-20.716 2.204 0 4.391 0.073 6.558 0.218l-0.294-0.016h261.962c77.542 0 132.52 32.002 160.624 70.363s43.079 103.8 43.079 212.524c0 96.62-11.283 163.085-50.259 208.626-40.38 41.112-96.558 66.591-158.686 66.591-2.629 0-5.248-0.046-7.855-0.136l0.378 0.010h-254.782c-0.538 0.012-1.173 0.018-1.81 0.018-25.653 0-48.806-10.701-65.239-27.883l-0.032-0.034c-11.878-17.404-18.967-38.899-18.967-62.050 0-3.722 0.183-7.401 0.541-11.029l-0.037 0.459v-375.404zM3877.124 767.914c-0.133 1.201-0.21 2.594-0.21 4.004 0 10.619 4.314 20.23 11.286 27.175l0.001 0.001c6.818 4.106 15.048 6.535 23.846 6.535 1.427 0 2.839-0.064 4.233-0.189l-0.18 0.013h13.539c43.079 0 76.722-2.257 101.544-24.001s37.54-55.182 37.54-116.724c0-79.184-17.027-104.416-24.822-113.442-23.181-26.873-64.208-31.797-105.236-31.797h-24.822c-0.443-0.015-0.964-0.024-1.487-0.024-10.626 0-20.402 3.639-28.15 9.74l0.097-0.074c-5.349 7.121-8.566 16.109-8.566 25.849 0 2.463 0.206 4.877 0.601 7.227l-0.035-0.254v205.139zM4839.43 380.407v135.802h-274.065c-2.108-0.301-4.543-0.473-7.017-0.473-10.074 0-19.483 2.848-27.466 7.782l0.225-0.129c-4.967 4.752-8.054 11.434-8.054 18.836 0 0.59 0.020 1.176 0.058 1.756l-0.004-0.079v61.542h305.247v120.827h-305.452v42.259c-0.148 1.201-0.233 2.591-0.233 4.001 0 8.988 3.441 17.172 9.077 23.308l-0.023-0.025c7.244 5.035 16.224 8.044 25.908 8.044 0.7 0 1.397-0.016 2.089-0.047l-0.098 0.004h276.527v135.597h-401.867c-1.611 0.094-3.494 0.148-5.39 0.148-23.831 0-45.677-8.502-62.67-22.637l0.159 0.129c-14.965-14.617-24.245-34.997-24.245-57.545 0-2.201 0.088-4.381 0.262-6.537l-0.018 0.284v-383.61c0-26.258 0-49.028 25.642-70.363 16.093-12.192 36.45-19.53 58.521-19.53 3.303 0 6.568 0.164 9.786 0.485l-0.406-0.033zM4952.872 380.407h180.522v376.43c-0.388 2.118-0.609 4.556-0.609 7.045 0 10.851 4.213 20.719 11.092 28.056l-0.021-0.022c6.405 5.487 14.791 8.827 23.957 8.827 1.389 0 2.759-0.077 4.108-0.226l-0.166 0.015h99.903c2.911 0.463 6.268 0.728 9.686 0.728 15.413 0 29.57-5.379 40.696-14.363l-0.123 0.096c8.662-11.018 13.892-25.090 13.892-40.384 0-2.394-0.128-4.759-0.378-7.087l0.025 0.289c0.052-1.095 0.082-2.379 0.082-3.67 0-15.786-4.458-30.531-12.183-43.045l0.203 0.353c-11.233-10.548-26.394-17.028-43.068-17.028-2.534 0-5.033 0.15-7.489 0.441l0.297-0.029h-28.719c-46.361 0-80.825-25.642-80.825-63.183v-11.898c0-27.078 20.514-51.285 38.361-75.901l107.903-145.443h217.447l-159.803 166.983v2.257h24.206c1.041-0.036 2.264-0.057 3.492-0.057 45.676 0 84.672 28.598 100.061 68.865l0.246 0.734c13.088 37.941 20.646 81.664 20.646 127.151 0 3.619-0.048 7.227-0.143 10.823l0.011-0.531c0 42.259-4.718 92.107-28.719 127.801-37.54 54.977-99.287 54.977-134.366 54.977h-304.426c-1.912 0.13-4.143 0.204-6.393 0.204-26.615 0-50.805-10.387-68.736-27.327l0.048 0.045c-13.819-18.985-22.107-42.767-22.107-68.486 0-4.056 0.206-8.065 0.609-12.015l-0.041 0.496v-451.305zM6238.272 939.41h-138.879v-332.94c0-3.898 0-13.539-8.821-13.539s-11.283 8-15.18 13.539l-203.703 287.194c-25.073 32.342-63.932 52.959-107.607 52.959-3.859 0-7.68-0.161-11.458-0.477l0.494 0.033c-64.824 0-125.545-26.463-125.545-99.082v-466.691h139.289v331.504c0 16.001 8.616 16.001 11.077 16.001 5.539 0 11.488-8.206 15.18-13.539l202.267-285.348c35.079-49.438 78.978-55.182 121.237-55.182 117.545 0 121.442 80.004 121.442 100.108v465.46zM6353.97 604.624h218.678v121.647h-218.678v-121.442zM7196.271 380.407v135.802h-273.45c-2.094-0.296-4.514-0.465-6.973-0.465-10.088 0-19.511 2.844-27.512 7.775l0.227-0.13c-4.967 4.752-8.054 11.434-8.054 18.836 0 0.59 0.020 1.176 0.058 1.756l-0.004-0.079v61.542h305.247v120.827h-305.247v42.259c-0.137 1.159-0.215 2.501-0.215 3.862 0 9.029 3.431 17.257 9.061 23.45l-0.026-0.028c7.328 5.035 16.392 8.041 26.158 8.041 0.684 0 1.365-0.015 2.043-0.044l-0.097 0.003h276.322v135.597h-401.867c-1.606 0.093-3.485 0.147-5.376 0.147-23.902 0-45.819-8.499-62.894-22.639l0.165 0.132c-14.846-14.662-24.041-35.016-24.041-57.517 0-2.211 0.089-4.401 0.263-6.566l-0.018 0.285v-383.61c0-26.258 0-49.028 25.437-70.363 16.18-12.179 36.614-19.504 58.759-19.504 3.219 0 6.402 0.155 9.541 0.457l-0.399-0.031zM7880.203 380.407l-211.908 283.707 205.549 275.296h-215.806l-95.184-149.341-95.8 149.341h-214.986l205.139-275.707-211.703-283.297h215.806l101.339 157.341 101.339-157.341zM8134.37 380.407v161.444h235.294c1.311-0.039 2.853-0.061 4.401-0.061 35.266 0 67.867 11.409 94.313 30.737l-0.453-0.315c47.182 41.028 50.464 136.622 50.464 175.804 0 80.62-15.385 124.724-41.028 152.623-31.386 33.232-73.235 38.771-117.955 38.771h-308.939c-1.533 0.086-3.326 0.135-5.131 0.135-27.037 0-51.497-11.035-69.121-28.846l-0.008-0.008c-14.125-19.097-22.608-43.112-22.608-69.109 0-2.679 0.090-5.336 0.267-7.97l-0.019 0.357v-453.562zM8134.37 680.73v87.184c-0.218 1.32-0.343 2.842-0.343 4.393 0 15.635 12.674 28.309 28.309 28.309 0.77 0 1.534-0.031 2.289-0.091l-0.099 0.006h99.697c3.213 0.425 6.928 0.667 10.7 0.667 17.113 0 33.060-4.989 46.467-13.592l-0.343 0.206c10.041-9.775 16.27-23.423 16.27-38.525 0-1.893-0.098-3.763-0.289-5.605l0.019 0.231c0.149-1.714 0.234-3.71 0.234-5.724 0-16.318-5.571-31.334-14.914-43.251l0.115 0.153c-14.77-16.001-37.746-14.36-59.901-14.36zM8895.025 946.18c-84.722 0-184.625-2.462-244.525-57.439s-63.183-153.444-63.183-228.525 2.462-171.906 63.183-228.525 161.239-57.644 244.525-57.644 197.754 2.667 256.834 57.644 62.978 155.085 62.978 228.525-2.667 172.727-62.978 228.525-172.111 57.439-256.834 57.439zM8771.942 660.011c0 46.361 1.026 76.722 20.514 106.262 23.796 36.515 54.977 41.028 101.339 41.028s76.722-4.308 101.544-41.028c20.514-31.181 20.514-57.439 20.514-106.262 0-44.72 0-75.901-20.514-106.262-24.822-36.515-54.362-41.028-101.544-41.028s-77.542 4.103-101.339 41.028c-18.257 27.899-20.514 61.542-20.514 106.262zM435.51-57.975h-435.51v437.356c241.092 0 436.535-195.444 436.535-436.535v0zM981.179-57.975h-435.51c0 0.122 0 0.266 0 0.41 0 301.365-244.304 545.669-545.669 545.669v0 436.946c542.457 0 982.205-439.748 982.205-982.205v0zM1090.313-57.975c0.004 1.042 0.006 2.275 0.006 3.509 0 265.756-95.349 509.242-253.704 698.114l1.378-1.689c102.72 101.505 227.849 180.574 367.279 229.103l6.894 2.088c197.065-253.937 315.915-577.149 315.915-928.121 0-0.767-0.001-1.535-0.002-2.302v0.118zM1528.079 959.924c15.689-0.13 30.377-4.298 43.111-11.513l-0.442 0.231c13.692-7.535 24.671-18.515 31.998-31.793l0.209-0.414c7.278-12.489 11.608-27.475 11.693-43.465v-0.025c-0.013-15.854-4.276-30.71-11.71-43.493l0.222 0.414c-7.502-13.594-18.408-24.5-31.591-31.793l-0.411-0.209c-12.381-7.161-27.237-11.387-43.079-11.387s-30.698 4.225-43.501 11.611l0.422-0.224c-13.713 7.507-24.7 18.494-31.999 31.793l-0.208 0.413c-7.222 12.281-11.488 27.052-11.488 42.819 0 0.091 0 0.183 0 0.274v-0.014c0.085 16.015 4.415 31 11.92 43.912l-0.227-0.422c7.606 13.64 18.654 24.556 31.99 31.792l0.422 0.209c12.288 7.001 26.979 11.172 42.636 11.282h0.033zM1528.079 945.564c-13.124-0.107-25.411-3.594-36.064-9.629l0.37 0.193c-11.403-6.233-20.56-15.324-26.699-26.328l-0.174-0.34c-6.121-10.347-9.738-22.803-9.738-36.104s3.617-25.757 9.921-36.439l-0.183 0.335c6.359-11.31 15.504-20.389 26.525-26.491l0.348-0.177c10.337-6.026 22.754-9.584 36.002-9.584s25.665 3.557 36.348 9.769l-0.346-0.186c11.043 6.306 19.951 15.215 26.079 25.92l0.178 0.338c6.005 10.376 9.549 22.826 9.549 36.104s-3.544 25.729-9.737 36.457l0.188-0.353c-6.393 11.346-15.614 20.435-26.725 26.492l-0.354 0.176c-10.193 5.955-22.39 9.576-35.411 9.845l-0.078 0.001zM1489.923 825.353v93.543h32.002c1.103 0.054 2.395 0.085 3.694 0.085 7.143 0 14.069-0.929 20.664-2.673l-0.562 0.126c4.89-1.691 8.91-4.85 11.641-8.943l0.052-0.083c2.695-3.827 4.308-8.585 4.308-13.72 0-0.009 0-0.017 0-0.026v0.001c0-0.054 0.001-0.117 0.001-0.181 0-6.912-2.825-13.163-7.383-17.664l-0.003-0.003c-5.018-4.995-11.861-8.161-19.442-8.409l-0.047-0.001c3.088-1.207 5.742-2.872 8.022-4.942l-0.021 0.019c5.078-5.461 9.683-11.501 13.665-17.966l0.285-0.497 11.283-18.257h-18.462l-8.206 14.565c-4.094 8.443-9.39 15.641-15.766 21.716l-0.030 0.028c-3.148 2.066-7.006 3.296-11.152 3.296-0.263 0-0.524-0.005-0.784-0.015l0.038 0.001h-8.821v-40.002zM1504.899 877.868h18.257c0.823-0.079 1.779-0.124 2.746-0.124 5.557 0 10.766 1.493 15.246 4.1l-0.145-0.078c2.895 2.425 4.724 6.042 4.724 10.086 0 0.132-0.002 0.264-0.006 0.396v-0.019c0 0.040 0.001 0.088 0.001 0.136 0 2.808-0.925 5.399-2.486 7.487l0.023-0.033c-1.624 2.164-3.772 3.851-6.26 4.887l-0.099 0.037c-3.782 1.086-8.127 1.71-12.617 1.71-0.902 0-1.798-0.025-2.687-0.075l0.123 0.006h-17.232v-28.514z" />
<glyph unicode="&#xe930;" glyph-name="logo" data-tags="logo" horiz-adv-x="1025" d="M59.888 960.18h904.779c32.922-0.111 59.581-26.77 59.692-59.682v-904.79c-0.111-32.922-26.77-59.581-59.682-59.692h-904.79c0 0-0.001 0-0.001 0-32.938 0-59.665 26.59-59.887 59.475v904.8c0 33.075 26.813 59.888 59.888 59.888v0 0zM964.667 940.608h-904.779c-22.134-0.326-39.991-18.183-40.316-40.286v-904.614c0.009-11.238 4.57-21.409 11.938-28.769v0c7.309-7.374 17.44-11.939 28.638-11.939 0.046 0 0.093 0 0.139 0h904.38c22.438 0.111 40.598 18.27 40.708 40.698v904.594c-0.33 22.27-18.406 40.209-40.698 40.317h-0.010zM163.224 142.884v0c8.113 0.486 14.858 5.845 17.377 13.171l0.041 0.138 24.464 67.325v-79.264h35.815v109.403c-0.753 12.36-10.962 22.099-23.445 22.099-9.79 0-18.182-5.991-21.708-14.506l-0.057-0.156-31.314-84.939c-0.174-0.571-0.696-0.98-1.313-0.98-0.020 0-0.040 0-0.060 0.001h0.003c-0.017-0.001-0.037-0.001-0.057-0.001-0.617 0-1.14 0.409-1.311 0.97l-0.003 0.010-30.923 84.939c-3.466 8.918-11.982 15.124-21.947 15.124-12.577 0-22.844-9.886-23.457-22.31l-0.002-0.055v-109.403h35.815v79.068l24.464-67.325c2.56-7.463 9.305-12.823 17.364-13.306l0.054-0.003zM660.334 221.169h-73.196v25.443c0 2.486 2.015 4.501 4.501 4.501v0h67.912v24.073h-89.636c-9.792-0.109-17.701-8.018-17.81-17.799v-94.931c0 0 0-0.001 0-0.001 0-9.875 7.95-17.894 17.799-18.004h90.233v23.877h-67.717c-0.001 0-0.003 0-0.004 0-2.417 0-4.389 1.905-4.497 4.296v24.278h72.218v24.855zM381.639 259.725c-9.958 9.062-23.022 14.867-37.422 15.65l-0.154 0.007c-4.851 0.71-10.451 1.115-16.146 1.115s-11.295-0.405-16.774-1.189l0.627 0.074c-14.481-0.854-27.464-6.647-37.431-15.702l0.050 0.045c-10.215-12.094-16.425-27.86-16.425-45.076 0-1.769 0.066-3.522 0.194-5.258l-0.014 0.232c-0.136-1.634-0.213-3.537-0.213-5.457 0-17.019 6.068-32.62 16.158-44.759l-0.092 0.114c9.91-9.023 22.897-14.82 37.218-15.649l0.163-0.008c4.85-0.696 10.452-1.093 16.146-1.093s11.296 0.397 16.778 1.166l-0.632-0.073c14.558 0.773 27.626 6.582 37.624 15.7l-0.048-0.043c10.22 12.046 16.435 27.77 16.435 44.945 0 1.815-0.069 3.613-0.206 5.393l0.015-0.236c0.139 1.653 0.218 3.578 0.218 5.521 0 16.999-6.071 32.58-16.162 44.694l0.091-0.113zM354.24 177.33c-4.372-5.499-10.791-9.209-18.086-9.972l-0.115-0.010c-2.383-0.423-5.126-0.665-7.926-0.665s-5.543 0.242-8.21 0.706l0.284-0.041c-7.404 0.795-13.816 4.499-18.16 9.928l-0.041 0.053c-4.966 9.279-7.883 20.299-7.883 31.999s2.917 22.72 8.063 32.37l-0.181-0.371c4.399 5.466 10.803 9.163 18.080 9.97l0.122 0.011c2.383 0.416 5.127 0.654 7.926 0.654s5.543-0.238 8.213-0.695l-0.286 0.041c7.404-0.795 13.816-4.499 18.16-9.928l0.041-0.053c4.981-9.276 7.908-20.296 7.908-31.999s-2.927-22.723-8.088-32.367l0.18 0.368zM450.139 236.043v10.177c0 0.001 0 0.003 0 0.004 0 2.417 1.905 4.389 4.296 4.497h9.796c1.172 0.102 2.536 0.161 3.914 0.161s2.742-0.058 4.090-0.173l-0.176 0.012c7.411-0.772 13.829-4.482 18.159-9.927l0.042-0.054c4.981-8.83 7.916-19.387 7.916-30.629s-2.935-21.799-8.080-30.946l0.164 0.317c-4.372-5.499-10.791-9.209-18.086-9.972l-0.115-0.010c-1.172-0.096-2.537-0.15-3.914-0.15s-2.742 0.055-4.093 0.162l0.178-0.011h-9.786c-2.378 0-4.306 1.928-4.306 4.306v0 62.237zM461.099 275.186h-27.987c-9.792-0.109-17.701-8.018-17.81-17.799v-94.931c0 0 0-0.001 0-0.001 0-9.875 7.95-17.894 17.799-18.004h32.107c0.117 0 0.255-0.001 0.394-0.001 5.587 0 11.091 0.356 16.49 1.046l-0.64-0.067c14.481 0.854 27.464 6.647 37.431 15.702l-0.050-0.045c10.206 11.609 16.434 26.933 16.434 43.711 0 1.767-0.069 3.518-0.205 5.251l0.014-0.229c0.121 1.503 0.19 3.254 0.19 5.021 0 16.778-6.228 32.102-16.498 43.785l0.064-0.074c-9.924 8.996-22.903 14.786-37.211 15.649l-0.17 0.008c-4.707 0.624-10.148 0.98-15.673 0.98-0.201 0-0.401 0-0.602-0.001h-3.296zM854.285 144.45v78.285l39.142-66.347c2.377-10.677 11.768-18.541 22.996-18.541 12.996 0 23.532 10.535 23.532 23.532 0 1.768-0.195 3.491-0.565 5.147l0.029-0.157v108.816h-36.207v-78.285l-40.317 67.129c-4.175 6.898-11.637 11.439-20.16 11.439-12.864 0-23.312-10.342-23.483-23.165v-108.832zM698.693 275.186c-9.836 0-17.81-7.974-17.81-17.81v0-112.926h35.815v102.162c-0.003 0.058-0.004 0.127-0.004 0.196 0 2.378 1.928 4.306 4.306 4.306 0.002 0 0.003 0 0.005 0h39.142c2.4-0.108 4.306-2.080 4.306-4.497 0-0.001 0-0.003 0-0.004v0-19.571c-0.103-2.336-1.97-4.203-4.296-4.305h-15.079c-0.469 0.043-1.015 0.068-1.566 0.068-9.944 0-18.006-8.061-18.006-18.006 0-0.024 0-0.048 0-0.072v0.004c0-0.046-0.001-0.1-0.001-0.154 0-3.501 1.022-6.764 2.783-9.506l-0.042 0.070 35.62-49.907h35.62l-36.207 51.668h19.571c9.944 0 18.006 8.061 18.006 18.006v0 42.274c0.001 0.059 0.001 0.128 0.001 0.197 0 9.836-7.974 17.81-17.81 17.81-0.069 0-0.138 0-0.207-0.001h-84.145zM937.854 65.774c-0.962 9.398-5.118 17.679-11.35 23.875l-0.002 0.002c-7.025 4.79-15.699 7.648-25.042 7.648-0.416 0-0.831-0.006-1.245-0.017l0.061 0.001c-3.958 0.358-8.56 0.563-13.211 0.563s-9.253-0.204-13.8-0.604l0.589 0.042c-0.296 0.007-0.645 0.011-0.995 0.011-9.339 0-18.011-2.857-25.19-7.744l0.156 0.1c-6.271-6.245-10.436-14.602-11.339-23.913l-0.013-0.16c-0.684-3.736-1.074-8.036-1.074-12.428s0.391-8.691 1.14-12.867l-0.065 0.439c0.915-9.471 5.080-17.827 11.35-24.071l0.001-0.001c7.004-4.788 15.657-7.645 24.977-7.645 0.37 0 0.739 0.005 1.107 0.013l-0.055-0.001c3.959-0.379 8.56-0.595 13.211-0.595s9.252 0.216 13.792 0.639l-0.582-0.044c0.331-0.009 0.72-0.014 1.111-0.014 9.301 0 17.935 2.858 25.071 7.745l-0.152-0.098c6.268 6.129 10.482 14.334 11.53 23.501l0.017 0.18c0.716 3.825 1.126 8.225 1.126 12.721s-0.41 8.896-1.194 13.166l0.068-0.445zM904.192 46.202c-0.153-4.518-1.517-8.688-3.777-12.232l0.058 0.098c-2.093-2.404-5.158-3.914-8.576-3.914-0.013 0-0.025 0-0.038 0h0.002c-1.323-0.193-2.85-0.304-4.404-0.304s-3.081 0.11-4.575 0.324l0.171-0.020c-0.011 0-0.023 0-0.036 0-3.418 0-6.483 1.511-8.564 3.901l-0.012 0.014c-2.193 3.449-3.556 7.617-3.717 12.091l-0.001 0.043c-0.221 1.879-0.348 4.056-0.348 6.263s0.126 4.383 0.372 6.524l-0.024-0.261c0.136 4.585 1.502 8.824 3.778 12.432l-0.060-0.102c2.115 2.392 5.186 3.898 8.608 3.914h0.003c1.321 0.143 2.853 0.225 4.404 0.225s3.083-0.082 4.592-0.241l-0.188 0.016c3.426-0.016 6.497-1.522 8.601-3.902l0.011-0.012c2.184-3.451 3.546-7.617 3.717-12.088l0.001-0.046c0.231-1.821 0.363-3.929 0.363-6.067s-0.132-4.246-0.388-6.315l0.025 0.248zM101.77 97.479c-9.468-0.109-17.114-7.755-17.223-17.212v-55.005c0-9.512 7.711-17.223 17.223-17.223h69.674v22.311h-47.167c-2.486 0-4.501 2.015-4.501 4.501v0 7.241h51.668v22.116h-51.668v7.241c0 2.486 2.015 4.501 4.501 4.501h47.167v22.116h-68.891zM367.548 7.843l19.571 23.29 19.571-23.29h36.011l-33.663 39.142c-1.059 1.267-1.717 2.901-1.761 4.688v0.009c0.050 1.925 0.865 3.65 2.151 4.891l0.002 0.002 33.271 39.142h-35.228l-19.571-23.29-19.571 23.29h-35.62l33.271-39.142c1.271-1.254 2.081-2.972 2.152-4.88v-0.013c-0.027-1.798-0.689-3.437-1.77-4.708l0.009 0.011-33.663-39.142zM689.691 97.479h-68.108c-9.468-0.109-17.114-7.755-17.223-17.212v-72.032h34.445v33.858h51.668c9.512 0 17.223 7.711 17.223 17.223v21.333c0 0 0 0.001 0 0.001 0 9.551-7.687 17.307-17.212 17.417h-0.010zM672.468 68.122c0-2.486-2.015-4.501-4.501-4.501v0h-29.161v7.241c0 2.486 2.015 4.501 4.501 4.501v0h25.443c2.486 0 4.501-2.015 4.501-4.501v0zM688.125 333.9c-83.162 277.971-313.414 486.339-598.209 536.561l-4.585 0.67v-203.15c178.946-43.059 322.125-167.172 390.631-330.372l1.381-3.709zM430.567 333.9c-65.624 143.1-190.112 249.56-341.611 289.431l-3.626 0.811v-290.242zM540.166 674.439c88.465-92.915 155.063-207.472 191.021-334.88l1.365-5.659h205.107c-41.035 183.487-127.614 342.578-247.302 470.258l0.508-0.548c-59.216-34.564-109.191-78.051-149.866-129.258l-0.833-1.086zM880.706 862.323c8.355-0.090 16.167-2.329 22.936-6.189l-0.233 0.122c7.308-3.969 13.177-9.776 17.112-16.811l0.111-0.216c3.882-6.628 6.199-14.584 6.263-23.076v-0.018c-0.195-8.732-2.793-16.818-7.157-23.672l0.111 0.186c-3.96-7.314-9.769-13.186-16.811-17.112l-0.216-0.111c-6.582-3.803-14.478-6.046-22.898-6.046s-16.316 2.244-23.123 6.166l0.225-0.119c-7.265 4.027-13.076 9.902-16.916 16.999l-0.111 0.224c-3.815 6.523-6.067 14.362-6.067 22.728 0 0.060 0 0.12 0 0.18v-0.009c0.064 8.51 2.381 16.466 6.383 23.317l-0.12-0.223c4.037 7.258 9.908 13.067 16.999 16.916l0.224 0.111c6.657 4.036 14.67 6.489 23.244 6.654l0.046 0.001zM880.706 854.69c-0.080 0.001-0.175 0.001-0.27 0.001-7.096 0-13.752-1.888-19.491-5.19l0.19 0.101c-6.072-3.344-10.942-8.215-14.194-14.104l-0.093-0.183c-3.297-5.614-5.244-12.365-5.244-19.571s1.947-13.957 5.344-19.756l-0.1 0.185c3.371-6.053 8.234-10.916 14.103-14.193l0.184-0.094c5.614-3.297 12.365-5.244 19.571-5.244s13.957 1.947 19.756 5.344l-0.185-0.1c6.034 3.397 10.89 8.253 14.192 14.103l0.095 0.184c3.297 5.614 5.244 12.365 5.244 19.571s-1.947 13.957-5.344 19.756l0.1-0.185c-3.354 6.066-8.221 10.934-14.103 14.194l-0.184 0.093c-5.549 3.201-12.204 5.089-19.301 5.089-0.095 0-0.19 0-0.285-0.001h0.015zM861.135 790.693v48.928h17.027c0.544 0.025 1.182 0.039 1.823 0.039 3.874 0 7.629-0.514 11.199-1.478l-0.3 0.069c2.628-0.916 4.784-2.63 6.234-4.846l0.028-0.046c1.445-2.014 2.321-4.523 2.348-7.235v-0.007c0-0.015 0-0.032 0-0.049 0-3.657-1.497-6.965-3.913-9.344l-0.002-0.002c-2.661-2.679-6.307-4.375-10.349-4.501l-0.023-0.001c1.666-0.674 3.094-1.6 4.313-2.747l-0.007 0.007c2.708-2.896 5.162-6.098 7.287-9.525l0.151-0.261 6.067-9.786h-9.786l-4.306 7.828c-2.176 4.487-4.998 8.31-8.398 11.53l-0.018 0.017c-1.629 1.116-3.643 1.782-5.813 1.782-0.227 0-0.453-0.007-0.676-0.022l0.030 0.002h-4.697v-20.941zM869.159 818.484h9.786c0.509-0.057 1.1-0.089 1.698-0.089 2.898 0 5.618 0.759 7.973 2.088l-0.081-0.042c1.559 1.302 2.545 3.246 2.545 5.42 0 0.021 0 0.042 0 0.063v-0.003c0.001 0.041 0.001 0.089 0.001 0.137 0 1.412-0.44 2.721-1.19 3.799l0.014-0.022c-0.853 1.12-1.976 1.992-3.275 2.525l-0.052 0.019c-1.206 0.204-2.595 0.321-4.012 0.321s-2.806-0.117-4.159-0.341l0.147 0.020h-9.198v-15.070z" />
<glyph unicode="&#xe931;" glyph-name="search" data-tags="search" d="M1024 27.843l-78.604-78.994-339.237 338.749c-63.244-47.592-141.507-76.264-226.645-76.556-208.945 0-378.587 169.545-379.465 379.221-0.926 210.359 168.277 381.562 377.856 382.488 209.579 0.878 380.197-168.911 381.074-379.221 0.098-84.943-27.794-163.206-74.459-226.694l339.48-338.993zM379.514 864.549c-147.505 0.049-267.362-119.369-268.337-267.41-1.024-148.675 118.296-270.043 266.435-271.019 148.139-1.024 269.068 118.735 270.043 267.41h0.098c0.341 149.114-119.662 270.385-268.239 271.019z" />
<glyph unicode="&#xe932;" glyph-name="case" data-tags="case" horiz-adv-x="1113" d="M979.904 759.732h-223.081v48.995c-0.087 83.511-67.762 151.186-151.264 151.273h-98.152c-83.511-0.087-151.186-67.762-151.273-151.264v-49.003h-222.622c-73.755-0.087-133.512-59.898-133.512-133.665v0-556.402c0.087-73.702 59.81-133.425 133.504-133.512h846.401c73.702 0.087 133.425 59.81 133.512 133.504v556.41c0 73.767-59.757 133.578-133.504 133.665h-0.008zM445.244 808.727c0.087 34.297 27.866 62.076 62.154 62.163h98.152c34.297-0.087 62.076-27.866 62.163-62.154v-49.003h-222.469zM1024 69.665c0-0.001 0-0.002 0-0.002 0-24.446-19.687-44.293-44.071-44.552h-846.416c-24.607 0-44.555 19.948-44.555 44.555v0 556.402c0 24.607 19.948 44.555 44.555 44.555v0h133.512v-311.579h-44.402v-89.11h178.067v89.11h-44.555v311.579h400.689v-311.579h-44.555v-89.11h178.067v89.11h-44.555v311.579h134.124c24.607 0 44.555-19.948 44.555-44.555v0z" />
<glyph unicode="&#xe933;" glyph-name="arrowRignt" data-tags="arrowRignt" horiz-adv-x="1399" d="M0 402.744l1225.795-0.023-402.775-402.73 64.014-63.992 512.091 511.977-4.639 4.571-507.452 507.452-64.014-63.992 402.775-402.775-1225.795 0.023z" />
<glyph unicode="&#xe934;" glyph-name="arrowLeft" data-tags="arrowLeft" horiz-adv-x="1399" d="M1399.124 493.256l-1225.795 0.023 402.775 402.73-64.014 63.992-512.091-511.977 4.639-4.571 507.452-507.452 64.014 63.992-402.775 402.775 1225.795-0.023z" />
</font>
</defs>
</svg>
